#N canvas 1699 -270 1399 548 12;
#X obj 200 124 vradio 19 1 0 11 empty empty empty 0 -10 0 12 #fcfcfc #000000 #000000 0;
#X obj 47 361 -;
#X floatatom 47 385 5 0 10 0 - - - 0;
#X obj 47 337 swap 10;
#X obj 47 408 * 0.1;
#X obj 219 124 vradio 19 1 0 11 empty empty empty 0 -10 0 12 #fcfcfc #000000 #000000 0;
#X obj 104 361 -;
#X floatatom 104 385 5 0 10 0 - - - 0;
#X obj 104 337 swap 10;
#X obj 104 408 * 0.1;
#X obj 238 124 vradio 19 1 0 11 empty empty empty 0 -10 0 12 #fcfcfc #000000 #000000 0;
#X obj 161 361 -;
#X floatatom 161 385 5 0 10 0 - - - 0;
#X obj 161 337 swap 10;
#X obj 161 408 * 0.1;
#X obj 257 124 vradio 19 1 0 11 empty empty empty 0 -10 0 12 #fcfcfc #000000 #000000 0;
#X obj 218 361 -;
#X floatatom 218 385 5 0 10 0 - - - 0;
#X obj 218 337 swap 10;
#X obj 218 408 * 0.1;
#X obj 276 124 vradio 19 1 0 11 empty empty empty 0 -10 0 12 #fcfcfc #000000 #000000 0;
#X obj 276 361 -;
#X floatatom 276 385 5 0 10 0 - - - 0;
#X obj 276 337 swap 10;
#X obj 276 408 * 0.1;
#X obj 295 124 vradio 19 1 0 11 empty empty empty 0 -10 0 12 #fcfcfc #000000 #000000 0;
#X obj 334 361 -;
#X floatatom 334 385 5 0 10 0 - - - 0;
#X obj 334 337 swap 10;
#X obj 334 408 * 0.1;
#X obj 314 124 vradio 19 1 0 11 empty empty empty 0 -10 0 12 #fcfcfc #000000 #000000 0;
#X obj 391 361 -;
#X floatatom 391 385 5 0 10 0 - - - 0;
#X obj 391 337 swap 10;
#X obj 391 408 * 0.1;
#X obj 333 124 vradio 19 1 0 11 empty empty empty 0 -10 0 12 #fcfcfc #000000 #000000 0;
#X obj 448 361 -;
#X floatatom 448 385 5 0 10 0 - - - 0;
#X obj 448 337 swap 10;
#X obj 448 408 * 0.1;
#X obj 352 124 vradio 19 1 0 11 empty empty empty 0 -10 0 12 #fcfcfc #000000 #000000 0;
#X obj 506 361 -;
#X floatatom 506 385 5 0 10 0 - - - 0;
#X obj 506 337 swap 10;
#X obj 506 408 * 0.1;
#X obj 371 124 vradio 19 1 0 11 empty empty empty 0 -10 0 12 #fcfcfc #000000 #000000 0;
#X obj 564 360 -;
#X floatatom 564 384 5 0 10 0 - - - 0;
#X obj 564 336 swap 10;
#X obj 564 407 * 0.1;
#X obj 74 32 bng 19 250 50 0 empty empty empty 0 -10 0 12 #fcfcfc #000000 #000000;
#X msg 74 56 10;
#X obj 73 8 loadbang;
#X obj 47 432 outlet;
#X obj 104 432 outlet;
#X obj 161 432 outlet;
#X obj 218 432 outlet;
#X obj 276 432 outlet;
#X obj 334 432 outlet;
#X obj 391 432 outlet;
#X obj 448 432 outlet;
#X obj 506 432 outlet;
#X obj 564 431 outlet;
#X obj 30 8 inlet;
#X obj 165 30 swap 10;
#X obj 165 54 -;
#X obj 470 31 swap 10;
#X obj 470 55 -;
#X obj 531 30 swap 10;
#X obj 531 54 -;
#X obj 593 29 swap 10;
#X obj 593 53 -;
#X obj 655 31 swap 10;
#X obj 655 55 -;
#X obj 720 32 swap 10;
#X obj 720 56 -;
#X obj 346 33 swap 10;
#X obj 346 57 -;
#X obj 409 32 swap 10;
#X obj 409 56 -;
#X obj 286 32 swap 10;
#X obj 286 56 -;
#X obj 225 31 swap 10;
#X obj 225 55 -;
#X obj 350 -21 unpack f f f f f f f f f f;
#X obj 350 -48 inlet;
#X connect 0 0 3 0;
#X connect 1 0 2 0;
#X connect 2 0 4 0;
#X connect 3 0 1 0;
#X connect 3 1 1 1;
#X connect 4 0 53 0;
#X connect 5 0 8 0;
#X connect 6 0 7 0;
#X connect 7 0 9 0;
#X connect 8 0 6 0;
#X connect 8 1 6 1;
#X connect 9 0 54 0;
#X connect 10 0 13 0;
#X connect 11 0 12 0;
#X connect 12 0 14 0;
#X connect 13 0 11 0;
#X connect 13 1 11 1;
#X connect 14 0 55 0;
#X connect 15 0 18 0;
#X connect 16 0 17 0;
#X connect 17 0 19 0;
#X connect 18 0 16 0;
#X connect 18 1 16 1;
#X connect 19 0 56 0;
#X connect 20 0 23 0;
#X connect 21 0 22 0;
#X connect 22 0 24 0;
#X connect 23 0 21 0;
#X connect 23 1 21 1;
#X connect 24 0 57 0;
#X connect 25 0 28 0;
#X connect 26 0 27 0;
#X connect 27 0 29 0;
#X connect 28 0 26 0;
#X connect 28 1 26 1;
#X connect 29 0 58 0;
#X connect 30 0 33 0;
#X connect 31 0 32 0;
#X connect 32 0 34 0;
#X connect 33 0 31 0;
#X connect 33 1 31 1;
#X connect 34 0 59 0;
#X connect 35 0 38 0;
#X connect 36 0 37 0;
#X connect 37 0 39 0;
#X connect 38 0 36 0;
#X connect 38 1 36 1;
#X connect 39 0 60 0;
#X connect 40 0 43 0;
#X connect 41 0 42 0;
#X connect 42 0 44 0;
#X connect 43 0 41 0;
#X connect 43 1 41 1;
#X connect 44 0 61 0;
#X connect 45 0 48 0;
#X connect 46 0 47 0;
#X connect 47 0 49 0;
#X connect 48 0 46 0;
#X connect 48 1 46 1;
#X connect 49 0 62 0;
#X connect 50 0 51 0;
#X connect 51 0 0 0;
#X connect 51 0 5 0;
#X connect 51 0 10 0;
#X connect 51 0 15 0;
#X connect 51 0 20 0;
#X connect 51 0 25 0;
#X connect 51 0 30 0;
#X connect 51 0 35 0;
#X connect 51 0 40 0;
#X connect 51 0 45 0;
#X connect 52 0 50 0;
#X connect 63 0 50 0;
#X connect 64 0 65 0;
#X connect 64 1 65 1;
#X connect 65 0 0 0;
#X connect 66 0 67 0;
#X connect 66 1 67 1;
#X connect 67 0 25 0;
#X connect 68 0 69 0;
#X connect 68 1 69 1;
#X connect 69 0 30 0;
#X connect 70 0 71 0;
#X connect 70 1 71 1;
#X connect 71 0 35 0;
#X connect 72 0 73 0;
#X connect 72 1 73 1;
#X connect 73 0 40 0;
#X connect 74 0 75 0;
#X connect 74 1 75 1;
#X connect 75 0 45 0;
#X connect 76 0 77 0;
#X connect 76 1 77 1;
#X connect 77 0 15 0;
#X connect 78 0 79 0;
#X connect 78 1 79 1;
#X connect 79 0 20 0;
#X connect 80 0 81 0;
#X connect 80 1 81 1;
#X connect 81 0 10 0;
#X connect 82 0 83 0;
#X connect 82 1 83 1;
#X connect 83 0 5 0;
#X connect 84 0 64 0;
#X connect 84 1 82 0;
#X connect 84 2 80 0;
#X connect 84 3 76 0;
#X connect 84 4 78 0;
#X connect 84 5 66 0;
#X connect 84 6 68 0;
#X connect 84 7 70 0;
#X connect 84 8 72 0;
#X connect 84 9 74 0;
#X connect 85 0 84 0;
#X coords 0 -1 1 1 200 230 1 195 110;
