#N canvas 0 38 1512 842 12;
#X text 270 28 gravity;
#X text 372 31 length1;
#X text 453 28 mass1;
#X text 523 30 length2;
#X text 617 30 mass2;
#X obj 272 55 loadbang;
#X msg 272 79 9.8;
#X obj 272 103 v gravity;
#X text 693 29 theta1;
#X text 779 35 theta2;
#X text 874 30 omega1;
#X text 959 35 omega2;
#X obj 369 97 v length1;
#X obj 458 96 v mass1;
#X obj 530 95 v length2;
#X obj 615 93 v mass2;
#X text 116 65 upperThetaPrime;
#X text 122 186 lowerThetaPrime;
#X text 133 270 upperOmegaPrime;
#X text 134 297 numerator:;
#X text 194 443 denominator:;
#X text 140 646 lowerOmegaPrime:;
#X text 141 680 numerator:;
#X text 226 804 denominator:;
#X obj 369 61 inlet;
#X obj 458 60 inlet;
#X obj 531 61 inlet;
#X obj 614 60 inlet;
#X obj 10 139 outlet;
#X obj 72 140 outlet;
#X obj 265 598 outlet;
#X obj 368 989 outlet;
#X obj 691 59 inlet;
#X obj 784 60 inlet;
#X obj 875 58 inlet;
#X obj 965 60 inlet;
#X obj 54 33 inlet;
#X text 1063 48 These last 4 change between abstractions \, so for safety we will use \$0 to make them local.;
#X obj 693 91 v theta1\$0;
#X obj 786 91 v theta2\$0;
#X obj 875 91 v omega1\$0;
#X obj 965 92 v omega2\$0;
#X obj 145 707 expr 2 * sin(theta1\$0 - theta2\$0);
#X obj 145 731 expr $f1 * ((length1 * pow(omega1\$0 \, 2) * (mass1 + mass2)) + (gravity * cos(theta1\$0) * (mass1 + mass2)) + (length2 * mass2 * pow(omega2\$0 \, 2) * cos(theta1\$0 - theta2\$0)));
#X obj 241 835 expr length2 * ((2 * mass1) + mass2 - (mass2 * cos((2 * theta1\$0) - (2 * theta2\$0))));
#X obj 135 378 expr $f1 - (2 * sin(theta1\$0 - theta2\$0) * mass2 * ((pow(omega2\$0 \, 2) * length2) + (pow(omega1\$0 \, 2) * length1 * cos(theta1\$0 - theta2\$0))));
#X obj 126 330 expr -1 * gravity * ((2 * mass1) + mass2) * sin(theta1\$0) - (gravity * mass2 * sin(theta1\$0 - (2 * theta2\$0)));
#X obj 215 476 expr length1 * ((2 * mass1) + mass2 - (mass2 * cos((2 * theta1\$0) - (2 * theta2\$0))));
#X obj 121 213 expr omega2\$0;
#X obj 127 95 expr omega1\$0;
#X obj 146 557 expr $f2 / $f1;
#X floatatom 73 590 5 0 0 0 - - - 0;
#X obj 219 954 expr $f2 / $f1;
#X floatatom 155 988 5 0 0 0 - - - 0;
#X floatatom 117 803 5 0 0 0 - - - 0;
#X floatatom 316 886 5 0 0 0 - - - 0;
#X floatatom 103 446 5 0 0 0 - - - 0;
#X floatatom 256 528 5 0 0 0 - - - 0;
#X connect 5 0 6 0;
#X connect 6 0 7 0;
#X connect 24 0 12 0;
#X connect 25 0 13 0;
#X connect 26 0 14 0;
#X connect 27 0 15 0;
#X connect 32 0 38 0;
#X connect 33 0 39 0;
#X connect 34 0 40 0;
#X connect 35 0 41 0;
#X connect 36 0 49 0;
#X connect 42 0 43 0;
#X connect 43 0 44 0;
#X connect 43 0 52 1;
#X connect 43 0 54 0;
#X connect 44 0 52 0;
#X connect 44 0 55 0;
#X connect 45 0 47 0;
#X connect 45 0 50 1;
#X connect 45 0 56 0;
#X connect 46 0 45 0;
#X connect 47 0 50 0;
#X connect 47 0 57 0;
#X connect 48 0 29 0;
#X connect 48 0 46 0;
#X connect 49 0 28 0;
#X connect 49 0 48 0;
#X connect 50 0 30 0;
#X connect 50 0 51 0;
#X connect 50 0 42 0;
#X connect 52 0 31 0;
#X connect 52 0 53 0;
