#N canvas 1512 -587 1920 821 12;
#X text 270 28 gravity;
#X text 372 31 length1;
#X text 453 28 mass1;
#X text 523 30 length2;
#X text 617 30 mass2;
#X obj 272 55 loadbang;
#X msg 272 79 9.8;
#X obj 272 103 v gravity;
#X text 693 29 theta1;
#X text 779 35 theta2;
#X text 874 30 omega1;
#X text 959 35 omega2;
#X obj 369 97 v length1;
#X obj 458 96 v mass1;
#X obj 530 95 v length2;
#X obj 615 93 v mass2;
#X text 2001 196 upperThetaPrime;
#X obj 2004 226 expr omega1;
#X text 1850 197 lowerThetaPrime;
#X obj 1849 224 expr omega2;
#X text 967 177 upperOmegaPrime;
#X text 968 204 numerator:;
#X text 1386 201 denominator:;
#X obj 1314 375 expr $f1 / $f2;
#X text 49 183 lowerOmegaPrime:;
#X text 50 217 numerator:;
#X text 518 207 denominator:;
#X obj 415 363 expr $f1 / $f2;
#X obj 369 61 inlet;
#X obj 458 60 inlet;
#X obj 531 61 inlet;
#X obj 614 60 inlet;
#X obj 2003 267 outlet;
#X obj 1848 266 outlet;
#X obj 1314 399 outlet;
#X obj 414 398 outlet;
#X obj 691 59 inlet;
#X obj 784 60 inlet;
#X obj 875 58 inlet;
#X obj 965 60 inlet;
#X obj 35 73 inlet;
#X floatatom 48 352 5 0 0 0 - - - 0;
#X floatatom 594 299 5 0 0 0 - - - 0;
#X floatatom 349 395 5 0 0 0 - - - 0;
#X floatatom 950 358 5 0 0 0 - - - 0;
#X floatatom 1476 296 5 0 0 0 - - - 0;
#X floatatom 1257 398 5 0 0 0 - - - 0;
#X obj 35 105 t b b b b b b;
#X obj 692 91 v \$0-theta1;
#X obj 786 91 v \$0-theta2;
#X obj 875 91 v \$0-omega1;
#X obj 965 92 v \$0-omega2;
#X text 1063 48 These last 4 change between abstractions \, so for safety we will use \$0 to make them local.;
#X obj 54 244 expr 2 * sin(\$0-theta1 - \$0-theta2);
#X obj 54 268 expr $f1 * ((length1 * pow(\$0-omega1 \, 2) * (mass1 + mass2)) + (gravity * cos(\$0-theta1) * (mass1 + mass2)) + (length2 * mass2 * pow(\$0-omega2 \, 2) * cos(\$0-theta1 - \$0-theta2)));
#X obj 520 236 expr length2 * ((2 * mass1) + mass2 - (mass2 * cos((2 * \$0-theta1) - (2 * \$0-theta2))));
#X obj 960 237 expr -1 * gravity * ((2 * mass1) + mass2) * sin(\$0-theta1) - (gravity * mass2 * sin(theta1 - (2 * theta2)));
#X obj 969 285 expr $f1 - (2 * sin(\$0-theta1 - \$0-theta2) * mass2 * ((pow(\$0-omega2 \, 2) * length2) + (pow(\$0-omega1 \, 2) * length1 * cos(\$0-theta1 - \$0-theta2))));
#X obj 1393 233 expr length1 * ((2 * mass1) + mass2 - (mass2 * cos((2 * \$0-theta1) - (2 * \$0-theta2))));
#X connect 5 0 6 0;
#X connect 6 0 7 0;
#X connect 17 0 32 0;
#X connect 19 0 33 0;
#X connect 23 0 34 0;
#X connect 23 0 46 0;
#X connect 27 0 35 0;
#X connect 27 0 43 0;
#X connect 28 0 12 0;
#X connect 29 0 13 0;
#X connect 30 0 14 0;
#X connect 31 0 15 0;
#X connect 36 0 48 0;
#X connect 37 0 49 0;
#X connect 38 0 50 0;
#X connect 39 0 51 0;
#X connect 40 0 47 0;
#X connect 47 0 53 0;
#X connect 47 1 55 0;
#X connect 47 2 56 0;
#X connect 47 3 58 0;
#X connect 47 4 19 0;
#X connect 47 5 17 0;
#X connect 53 0 54 0;
#X connect 54 0 41 0;
#X connect 54 0 27 0;
#X connect 55 0 42 0;
#X connect 55 0 27 1;
#X connect 56 0 57 0;
#X connect 57 0 23 0;
#X connect 57 0 44 0;
#X connect 58 0 45 0;
#X connect 58 0 23 1;
