#N canvas 169 179 1288 384 12;
#X text 43 27 gravity;
#X text 145 30 length1;
#X text 226 27 mass1;
#X text 296 29 length2;
#X text 390 29 mass2;
#X obj 43 53 loadbang;
#X msg 43 77 9.8;
#X obj 43 101 v gravity;
#X text 466 28 theta1;
#X text 543 28 theta2;
#X text 619 26 omega1;
#X text 701 28 omega2;
#X obj 463 89 v theta1;
#X obj 544 88 v theta2;
#X obj 630 88 v omega1;
#X obj 714 87 v omega2;
#X obj 140 95 v length1;
#X obj 229 94 v mass1;
#X obj 301 93 v length2;
#X obj 386 91 v mass2;
#X text 2001 196 upperThetaPrime;
#X obj 2004 226 expr omega1;
#X text 1850 197 lowerThetaPrime;
#X obj 1849 224 expr omega2;
#X text 967 177 upperOmegaPrime;
#X obj 969 233 expr -1 * gravity * (2 * mass1 + mass2) * sin(theta1) - gravity * mass2 * sin(theta1 - 2 * theta2);
#X obj 969 285 expr $f1 - 2 * mass2 * sin(theta1 - theta2) * (length2 * pow(omega2 \, 2) + length1 * pow(omega1 \, 2) * cos(theta1 - theta2));
#X text 968 204 numerator:;
#X text 1386 201 denominator:;
#X obj 1314 375 expr $f1 / $f2;
#X obj 1395 300 t b f;
#X text 49 183 lowerOmegaPrime:;
#X text 50 217 numerator:;
#X text 518 207 denominator:;
#X obj 416 332 expr $f1 / $f2;
#X obj 519 284 t b f;
#X obj 140 59 inlet;
#X obj 229 58 inlet;
#X obj 302 59 inlet;
#X obj 385 58 inlet;
#X floatatom 152 132 5 0 0 0 - - - 0;
#X obj 2003 267 outlet;
#X obj 1848 266 outlet;
#X obj 1314 399 outlet;
#X obj 415 367 outlet;
#X obj 462 57 inlet;
#X obj 542 57 inlet;
#X obj 630 55 inlet;
#X obj 714 55 inlet;
#X obj -42 103 t b b b b;
#X obj -42 71 inlet;
#X floatatom 49 321 5 0 0 0 - - - 0;
#X floatatom 594 299 5 0 0 0 - - - 0;
#X floatatom 350 364 5 0 0 0 - - - 0;
#X floatatom 950 358 5 0 0 0 - - - 0;
#X floatatom 1476 296 5 0 0 0 - - - 0;
#X obj 54 244 expr 2 * sin(theta1 - theta2) * (length1 * pow(omega1 \, 2) * (mass1 + mass2) + cos(theta1) * gravity * (mass1 + mass2) + length2 * mass2 * pow(omega2 \, 2) * cos(theta1 - theta2));
#X obj 520 236 expr length2 * (2 * mass1 + mass2 * (1 - cos(2 * (theta1 - theta2))));
#X obj 1393 233 expr length1 * (2 * mass1 + mass2 * (1 - cos(2 * (theta1 - theta2))));
#X connect 5 0 6 0;
#X connect 6 0 7 0;
#X connect 16 0 40 0;
#X connect 21 0 41 0;
#X connect 23 0 42 0;
#X connect 25 0 26 0;
#X connect 26 0 29 0;
#X connect 26 0 54 0;
#X connect 29 0 43 0;
#X connect 30 0 29 0;
#X connect 30 1 29 1;
#X connect 34 0 44 0;
#X connect 34 0 53 0;
#X connect 35 0 34 0;
#X connect 35 1 34 1;
#X connect 36 0 16 0;
#X connect 37 0 17 0;
#X connect 38 0 18 0;
#X connect 39 0 19 0;
#X connect 45 0 12 0;
#X connect 46 0 13 0;
#X connect 47 0 14 0;
#X connect 48 0 15 0;
#X connect 49 0 56 0;
#X connect 49 0 57 0;
#X connect 49 1 25 0;
#X connect 49 1 58 0;
#X connect 49 2 23 0;
#X connect 49 3 21 0;
#X connect 50 0 49 0;
#X connect 56 0 34 0;
#X connect 56 0 51 0;
#X connect 57 0 35 0;
#X connect 57 0 52 0;
#X connect 58 0 30 0;
#X connect 58 0 55 0;
