#N canvas 92 130 940 483 12;
#X obj 200 124 vradio 19 1 0 11 empty empty empty 0 -10 0 12 #fcfcfc #000000 #000000 0;
#X obj 47 361 -;
#X floatatom 47 385 5 0 10 0 - - - 0;
#X obj 47 337 swap 10;
#X obj 219 124 vradio 19 1 0 11 empty empty empty 0 -10 0 12 #fcfcfc #000000 #000000 0;
#X obj 104 361 -;
#X floatatom 104 385 5 0 10 0 - - - 0;
#X obj 104 337 swap 10;
#X obj 238 124 vradio 19 1 0 11 empty empty empty 0 -10 0 12 #fcfcfc #000000 #000000 0;
#X obj 161 361 -;
#X floatatom 161 385 5 0 10 0 - - - 0;
#X obj 161 337 swap 10;
#X obj 257 124 vradio 19 1 0 11 empty empty empty 0 -10 0 12 #fcfcfc #000000 #000000 0;
#X obj 218 361 -;
#X floatatom 218 385 5 0 10 0 - - - 0;
#X obj 218 337 swap 10;
#X obj 276 124 vradio 19 1 0 11 empty empty empty 0 -10 0 12 #fcfcfc #000000 #000000 0;
#X obj 276 361 -;
#X floatatom 276 385 5 0 10 0 - - - 0;
#X obj 276 337 swap 10;
#X obj 295 124 vradio 19 1 0 11 empty empty empty 0 -10 0 12 #fcfcfc #000000 #000000 0;
#X obj 334 361 -;
#X floatatom 334 385 5 0 10 0 - - - 0;
#X obj 334 337 swap 10;
#X obj 314 124 vradio 19 1 0 11 empty empty empty 0 -10 0 12 #fcfcfc #000000 #000000 0;
#X obj 391 361 -;
#X floatatom 391 385 5 0 10 0 - - - 0;
#X obj 391 337 swap 10;
#X obj 333 124 vradio 19 1 0 11 empty empty empty 0 -10 0 12 #fcfcfc #000000 #000000 0;
#X obj 448 361 -;
#X floatatom 448 385 5 0 10 0 - - - 0;
#X obj 448 337 swap 10;
#X obj 352 124 vradio 19 1 0 11 empty empty empty 0 -10 0 12 #fcfcfc #000000 #000000 0;
#X obj 506 361 -;
#X floatatom 506 385 5 0 10 0 - - - 0;
#X obj 506 337 swap 10;
#X obj 371 124 vradio 19 1 0 11 empty empty empty 0 -10 0 12 #fcfcfc #000000 #000000 0;
#X obj 564 360 -;
#X floatatom 564 384 5 0 10 0 - - - 0;
#X obj 564 336 swap 10;
#X obj 74 32 bng 19 250 50 0 empty empty empty 0 -10 0 12 #fcfcfc #000000 #000000;
#X msg 74 56 10;
#X obj 73 8 loadbang;
#X obj 47 432 outlet;
#X obj 104 432 outlet;
#X obj 161 432 outlet;
#X obj 218 432 outlet;
#X obj 276 432 outlet;
#X obj 334 432 outlet;
#X obj 391 432 outlet;
#X obj 448 432 outlet;
#X obj 506 432 outlet;
#X obj 564 431 outlet;
#X obj 30 8 inlet;
#X connect 0 0 3 0;
#X connect 1 0 2 0;
#X connect 2 0 43 0;
#X connect 3 0 1 0;
#X connect 3 1 1 1;
#X connect 4 0 7 0;
#X connect 5 0 6 0;
#X connect 6 0 44 0;
#X connect 7 0 5 0;
#X connect 7 1 5 1;
#X connect 8 0 11 0;
#X connect 9 0 10 0;
#X connect 10 0 45 0;
#X connect 11 0 9 0;
#X connect 11 1 9 1;
#X connect 12 0 15 0;
#X connect 13 0 14 0;
#X connect 14 0 46 0;
#X connect 15 0 13 0;
#X connect 15 1 13 1;
#X connect 16 0 19 0;
#X connect 17 0 18 0;
#X connect 18 0 47 0;
#X connect 19 0 17 0;
#X connect 19 1 17 1;
#X connect 20 0 23 0;
#X connect 21 0 22 0;
#X connect 22 0 48 0;
#X connect 23 0 21 0;
#X connect 23 1 21 1;
#X connect 24 0 27 0;
#X connect 25 0 26 0;
#X connect 26 0 49 0;
#X connect 27 0 25 0;
#X connect 27 1 25 1;
#X connect 28 0 31 0;
#X connect 29 0 30 0;
#X connect 30 0 50 0;
#X connect 31 0 29 0;
#X connect 31 1 29 1;
#X connect 32 0 35 0;
#X connect 33 0 34 0;
#X connect 34 0 51 0;
#X connect 35 0 33 0;
#X connect 35 1 33 1;
#X connect 36 0 39 0;
#X connect 37 0 38 0;
#X connect 38 0 52 0;
#X connect 39 0 37 0;
#X connect 39 1 37 1;
#X connect 40 0 41 0;
#X connect 41 0 0 0;
#X connect 41 0 4 0;
#X connect 41 0 8 0;
#X connect 41 0 12 0;
#X connect 41 0 16 0;
#X connect 41 0 20 0;
#X connect 41 0 24 0;
#X connect 41 0 28 0;
#X connect 41 0 32 0;
#X connect 41 0 36 0;
#X connect 42 0 40 0;
#X connect 53 0 40 0;
#X coords 0 -1 1 1 200 235 1 195 105;
