#N canvas 2000 -236 450 300 12;
#X floatatom 94 112 5 0 0 0 - - - 0;
#X obj 163 201 osc~;
#X obj 162 246 *~;
#X obj 162 276 outlet~;
#X obj 240 212 inlet;
#X obj 122 27 inlet;
#X obj 164 92 *;
#X obj 189 26 inlet;
#X obj 189 55 t b f;
#X text 73 25 freq;
#X text 235 23 freq mult;
#X text 285 212 amp;
#X connect 1 0 2 0;
#X connect 2 0 3 0;
#X connect 4 0 2 1;
#X connect 5 0 6 0;
#X connect 6 0 0 0;
#X connect 6 0 1 0;
#X connect 7 0 8 0;
#X connect 8 0 6 0;
#X connect 8 1 6 1;
