#N canvas 397 218 732 300 12;
#X obj 188 191 vcf~;
#X obj 76 50 inlet~;
#X obj 188 239 outlet~;
#X obj 192 44 inlet;
#X text 31 20 audio signal input \, fundamental cf \, multiplier \, cf mod \, Q value, f 63;
#X obj 295 44 inlet;
#X obj 371 45 inlet;
#X obj 430 45 inlet;
#X obj 245 89 *;
#X obj 276 134 +;
#X connect 0 0 2 0;
#X connect 1 0 0 0;
#X connect 3 0 8 0;
#X connect 5 0 8 1;
#X connect 6 0 9 0;
#X connect 7 0 0 2;
#X connect 8 0 0 1;
#X connect 8 0 9 1;
#X connect 9 0 0 1;
