#N canvas 1513 -402 1512 842 12;
#X text 262 146 K1;
#X obj 317 162 doublependmotion;
#X msg 347 75 list 1 2 1 2;
#X text 316 49 constants: L1 \, M1 \, L2 \, M2;
#X obj 347 99 unpack f f f f;
#X obj 606 66 unpack f f f f;
#X text 512 7 start conditions: angle1 \, angle2 \, anglevel1 \, anglevel2;
#X text 285 438 K2;
#X obj 22 257 v timestep;
#X text 1114 27 CUR STATE;
#X obj 1016 103 v angle1;
#X obj 1096 104 v angle2;
#X obj 1172 104 v anglevel1;
#X obj 1267 103 v anglevel2;
#X floatatom 1017 153 9 0 0 0 - - - 0;
#X floatatom 1095 152 9 0 0 0 - - - 0;
#X floatatom 1172 155 9 0 0 0 - - - 0;
#X floatatom 1267 155 8 0 0 0 - - - 0;
#X obj 72 306 expr ($f1 * (timestep / 2)) + angle1;
#X obj 298 334 expr ($f1 * (timestep / 2)) + angle2;
#X obj 517 303 expr ($f1 * (timestep / 2)) + anglevel1;
#X obj 779 349 expr ($f1 * (timestep / 2)) + anglevel2;
#X obj 341 434 doublependmotion;
#X floatatom 72 348 5 0 0 0 - - - 0;
#X floatatom 275 366 5 0 0 0 - - - 0;
#X floatatom 582 350 5 0 0 0 - - - 0;
#X floatatom 774 399 5 0 0 0 - - - 0;
#X obj 19 203 loadbang;
#X obj 23 553 expr ($f1 * (timestep / 2)) + angle1;
#X text 286 685 K3;
#X obj 344 675 doublependmotion;
#X text 300 887 K4;
#X obj 90 803 expr ($f1 * timestep) + angle1;
#X obj 333 890 doublependmotion;
#X obj 1106 387 expr $f1 * (timestep / 6);
#X obj 1180 412 expr $f1 * (timestep / 6);
#X obj 1234 436 expr $f1 * (timestep / 6);
#X obj 1278 461 expr $f1 * (timestep / 6);
#X obj 1116 631 expr ($f1 * 2) * (timestep / 6);
#X obj 1170 661 expr ($f1 * 2) * (timestep / 6);
#X obj 1235 688 expr ($f1 * 2) * (timestep / 6);
#X obj 1288 714 expr ($f1 * 2) * (timestep / 6);
#X obj 1152 865 expr ($f1 * 2) * (timestep / 6);
#X obj 1206 895 expr ($f1 * 2) * (timestep / 6);
#X obj 1271 922 expr ($f1 * 2) * (timestep / 6);
#X obj 1324 948 expr ($f1 * 2) * (timestep / 6);
#X obj 1136 1102 expr $f1 * (timestep / 6);
#X obj 1210 1127 expr $f1 * (timestep / 6);
#X obj 1264 1151 expr $f1 * (timestep / 6);
#X obj 1308 1176 expr $f1 * (timestep / 6);
#X obj 1121 697 +;
#X obj 1118 911 +;
#X obj 1116 1159 +;
#X obj 1172 705 +;
#X obj 1226 722 +;
#X obj 1278 757 +;
#X obj 1190 931 +;
#X obj 1258 954 +;
#X obj 1315 987 +;
#X obj 1178 1166 +;
#X obj 1225 1182 +;
#X obj 1391 1208 +;
#X obj 1143 1277 pack f f f f;
#X listbox 1143 1301 36 0 0 0 - - - 0;
#X obj 1146 49 bng 19 250 50 0 empty empty empty 0 -10 0 12 #fcfcfc #000000 #000000;
#X obj 1143 1324 unpack f f f f;
#X obj 1055 1375 send angle1;
#X obj 1169 1385 send angle2;
#X obj 1273 1385 send anglevel1;
#X obj 1400 1388 send anglevel2;
#X obj 554 -51 loadbang;
#X obj 554 -27 t b b b;
#X obj 138 27 bng 19 250 50 0 empty empty empty 0 -10 0 12 #fcfcfc #000000 #000000;
#X text 172 33 DO STEP;
#X obj 138 62 t b b b b b;
#X floatatom 79 83 5 0 0 0 - - - 0;
#X obj 81 58 + 1;
#X msg 82 35 1;
#X text 884 1469 hi;
#X text 1767 541 hi;
#X obj 280 596 expr ($f1 * (timestep / 2)) + angle2;
#X obj 535 556 expr ($f1 * (timestep / 2)) + anglevel1;
#X obj 778 597 expr ($f1 * (timestep / 2)) + anglevel2;
#X obj 333 796 expr ($f1 * timestep) + angle2;
#X obj 573 800 expr ($f1 * timestep) + anglevel1;
#X obj 836 798 expr ($f1 * timestep) + anglevel2;
#X msg 604 34 list 1.4 1.4 1 1;
#X obj 1452 217 delay 100;
#X obj 945 1198 expr $f1 + angle1;
#X obj 1084 1203 expr $f1 + angle2;
#X obj 1225 1206 expr $f1 + anglevel1;
#X obj 1391 1232 expr $f1 + anglevel2;
#X obj 1498 373 t f b;
#X floatatom 1475 422 5 0 0 0 - - - 0;
#X obj 1562 417 bng 19 250 50 0 empty empty empty 0 -10 0 12 #fcfcfc #000000 #000000;
#X msg 1499 344 0.5;
#X obj 158 365 t b f;
#X obj 128 606 t b f;
#X obj 195 843 t b f;
#X obj 138 -11 metro 100;
#X obj 119 -42 bng 19 250 50 0 empty empty empty 0 -10 0 12 #fcfcfc #000000 #000000;
#X msg 153 -46 0;
#X msg 21 227 0.05;
#X obj 37 37;
#X obj 237 1202 footest;
#X obj 356 1206 footest;
#X floatatom 349 1167 5 0 0 0 - - - 0;
#X floatatom 403 1166 5 0 0 0 - - - 0;
#X floatatom 200 1161 5 0 0 0 - - - 0;
#X floatatom 279 1155 5 0 0 0 - - - 0;
#X connect 1 0 18 0;
#X connect 1 0 34 0;
#X connect 1 1 19 0;
#X connect 1 1 35 0;
#X connect 1 2 20 0;
#X connect 1 2 36 0;
#X connect 1 3 21 0;
#X connect 1 3 37 0;
#X connect 2 0 4 0;
#X connect 4 0 1 1;
#X connect 4 1 1 2;
#X connect 4 2 1 3;
#X connect 4 3 1 4;
#X connect 5 0 10 0;
#X connect 5 1 11 0;
#X connect 5 2 12 0;
#X connect 5 3 13 0;
#X connect 10 0 14 0;
#X connect 10 0 1 5;
#X connect 11 0 15 0;
#X connect 11 0 1 6;
#X connect 12 0 16 0;
#X connect 12 0 1 7;
#X connect 13 0 17 0;
#X connect 13 0 1 8;
#X connect 18 0 23 0;
#X connect 18 0 96 0;
#X connect 19 0 24 0;
#X connect 19 0 22 6;
#X connect 20 0 25 0;
#X connect 20 0 22 7;
#X connect 21 0 26 0;
#X connect 21 0 22 8;
#X connect 22 0 28 0;
#X connect 22 0 38 0;
#X connect 22 1 39 0;
#X connect 22 1 80 0;
#X connect 22 2 40 0;
#X connect 22 2 81 0;
#X connect 22 3 41 0;
#X connect 22 3 82 0;
#X connect 27 0 102 0;
#X connect 28 0 97 0;
#X connect 30 0 32 0;
#X connect 30 0 42 0;
#X connect 30 1 43 0;
#X connect 30 1 83 0;
#X connect 30 2 44 0;
#X connect 30 2 84 0;
#X connect 30 3 45 0;
#X connect 30 3 85 0;
#X connect 32 0 98 0;
#X connect 33 0 46 0;
#X connect 33 1 47 0;
#X connect 33 2 48 0;
#X connect 33 3 49 0;
#X connect 34 0 50 1;
#X connect 35 0 53 1;
#X connect 36 0 54 1;
#X connect 37 0 55 1;
#X connect 38 0 50 0;
#X connect 39 0 53 0;
#X connect 40 0 54 0;
#X connect 41 0 55 0;
#X connect 42 0 51 0;
#X connect 43 0 56 0;
#X connect 44 0 57 0;
#X connect 45 0 58 0;
#X connect 46 0 52 0;
#X connect 47 0 59 0;
#X connect 48 0 60 0;
#X connect 49 0 61 0;
#X connect 50 0 51 1;
#X connect 51 0 52 1;
#X connect 52 0 88 0;
#X connect 53 0 56 1;
#X connect 54 0 57 1;
#X connect 55 0 58 1;
#X connect 56 0 59 1;
#X connect 57 0 60 1;
#X connect 58 0 61 1;
#X connect 59 0 89 0;
#X connect 60 0 90 0;
#X connect 61 0 91 0;
#X connect 62 0 63 0;
#X connect 63 0 65 0;
#X connect 64 0 10 0;
#X connect 64 0 11 0;
#X connect 64 0 12 0;
#X connect 64 0 13 0;
#X connect 65 0 66 0;
#X connect 65 1 67 0;
#X connect 65 2 68 0;
#X connect 65 3 69 0;
#X connect 70 0 71 0;
#X connect 71 0 2 0;
#X connect 71 1 64 0;
#X connect 71 2 86 0;
#X connect 72 0 74 0;
#X connect 72 0 77 0;
#X connect 74 0 64 0;
#X connect 74 4 1 0;
#X connect 75 0 76 1;
#X connect 76 0 75 0;
#X connect 77 0 76 0;
#X connect 80 0 30 6;
#X connect 81 0 30 7;
#X connect 82 0 30 8;
#X connect 83 0 33 6;
#X connect 84 0 33 7;
#X connect 85 0 33 8;
#X connect 86 0 5 0;
#X connect 88 0 62 0;
#X connect 89 0 62 1;
#X connect 90 0 62 2;
#X connect 91 0 62 3;
#X connect 92 0 93 0;
#X connect 92 1 94 0;
#X connect 95 0 92 0;
#X connect 96 0 22 0;
#X connect 96 1 22 5;
#X connect 97 0 30 0;
#X connect 97 1 30 5;
#X connect 98 0 33 0;
#X connect 98 1 33 5;
#X connect 99 0 72 0;
#X connect 100 0 99 0;
#X connect 101 0 99 0;
#X connect 102 0 8 0;
#X connect 106 0 105 0;
#X connect 107 0 105 1;
#X connect 108 0 104 0;
#X connect 109 0 104 1;
