#N canvas 0 38 1512 844 12;
#X obj 18 88 bng 19 250 50 0 empty empty empty 0 -10 0 12 #fcfcfc #000000 #000000;
#X obj 65 71 unpack f f f f f f f f;
#X floatatom 30 173 5 0 0 0 - - - 0;
#X floatatom 82 177 5 0 0 0 - - - 0;
#X floatatom 128 183 5 0 0 0 - - - 0;
#X floatatom 185 183 5 0 0 0 - - - 0;
#X msg 65 47 list 1 2 1 2 1.4 1.3 0 0;
#X obj 85 138 doublependmotion;
#X text 262 146 K1;
#X obj 317 162 doublependmotion;
#X msg 347 75 list 1 2 1 2;
#X text 316 49 constants: L1 \, M1 \, L2 \, M2;
#X obj 347 99 unpack f f f f;
#X obj 606 66 unpack f f f f;
#X text 512 7 start conditions: angle1 \, angle2 \, anglevel1 \, anglevel2;
#X text 285 438 K2;
#X obj 22 257 v timestep;
#X msg 21 227 0.1;
#X text 1114 27 CUR STATE;
#X obj 1016 103 v angle1;
#X obj 1096 104 v angle2;
#X obj 1172 104 v anglevel1;
#X obj 1267 103 v anglevel2;
#X floatatom 1017 153 9 0 0 0 - - - 0;
#X floatatom 1095 152 9 0 0 0 - - - 0;
#X floatatom 1172 155 9 0 0 0 - - - 0;
#X floatatom 1267 155 8 0 0 0 - - - 0;
#X obj 72 306 expr ($f1 * (timestep / 2)) + angle1;
#X obj 298 334 expr ($f1 * (timestep / 2)) + angle2;
#X obj 517 303 expr ($f1 * (timestep / 2)) + anglevel1;
#X obj 779 349 expr ($f1 * (timestep / 2)) + anglevel2;
#X obj 341 434 doublependmotion;
#X obj 270 404 bng 19 250 50 0 empty empty empty 0 -10 0 12 #fcfcfc #000000 #000000;
#X msg 604 34 list 1.4 1.3 1 1;
#X floatatom 72 348 5 0 0 0 - - - 0;
#X floatatom 275 366 5 0 0 0 - - - 0;
#X floatatom 582 350 5 0 0 0 - - - 0;
#X floatatom 774 399 5 0 0 0 - - - 0;
#X obj 19 203 loadbang;
#X obj 280 596 expr ($f1 * (timestep / 2)) + angle1;
#X obj 23 553 expr ($f1 * (timestep / 2)) + angle1;
#X obj 535 556 expr ($f1 * (timestep / 2)) + angle1;
#X obj 778 597 expr ($f1 * (timestep / 2)) + angle1;
#X text 286 685 K3;
#X obj 344 675 doublependmotion;
#X obj 254 641 bng 19 250 50 0 empty empty empty 0 -10 0 12 #fcfcfc #000000 #000000;
#X text 300 887 K4;
#X obj 90 803 expr ($f1 * timestep) + angle1;
#X obj 333 796 expr ($f1 * timestep) + angle1;
#X obj 573 800 expr ($f1 * timestep) + angle1;
#X obj 813 800 expr ($f1 * timestep) + angle1;
#X obj 333 890 doublependmotion;
#X obj 1140 1009 pack f f f f;
#X listbox 1140 1033 34 0 0 0 - - - 0;
#X obj 257 864 bng 19 250 50 0 empty empty empty 0 -10 0 12 #fcfcfc #000000 #000000;
#X obj 1150 781 pack f f f f;
#X listbox 1150 805 34 0 0 0 - - - 0;
#X obj 1146 536 pack f f f f;
#X listbox 1146 560 31 0 0 0 - - - 0;
#X obj 1134 275 pack f f f f;
#X listbox 1134 299 24 0 0 0 - - - 0;
#X obj 1134 322 unpack f f f f;
#X obj 1146 583 unpack f f f f;
#X obj 1150 828 unpack f f f f;
#X obj 1140 1056 unpack f f f f;
#X text 994 1381 hi :P;
#X text 1767 541 hi :P;
#X obj 1106 387 expr $f1 * (timestep / 6);
#X obj 1180 412 expr $f1 * (timestep / 6);
#X obj 1234 436 expr $f1 * (timestep / 6);
#X obj 1278 461 expr $f1 * (timestep / 6);
#X obj 1116 631 expr ($f1 * 2) * (timestep / 6);
#X obj 1170 661 expr ($f1 * 2) * (timestep / 6);
#X obj 1235 688 expr ($f1 * 2) * (timestep / 6);
#X obj 1288 714 expr ($f1 * 2) * (timestep / 6);
#X obj 1152 865 expr ($f1 * 2) * (timestep / 6);
#X obj 1206 895 expr ($f1 * 2) * (timestep / 6);
#X obj 1271 922 expr ($f1 * 2) * (timestep / 6);
#X obj 1324 948 expr ($f1 * 2) * (timestep / 6);
#X obj 1136 1102 expr $f1 * (timestep / 6);
#X obj 1210 1127 expr $f1 * (timestep / 6);
#X obj 1264 1151 expr $f1 * (timestep / 6);
#X obj 1308 1176 expr $f1 * (timestep / 6);
#X obj 1121 697 +;
#X obj 1118 911 +;
#X obj 1116 1159 +;
#X obj 1172 705 +;
#X obj 1226 722 +;
#X obj 1278 757 +;
#X obj 1190 931 +;
#X obj 1258 954 +;
#X obj 1315 987 +;
#X obj 1188 1165 +;
#X obj 1245 1191 +;
#X obj 1308 1213 +;
#X obj 1141 1235 pack f f f f;
#X listbox 1141 1259 36 0 0 0 - - - 0;
#X obj 1146 49 bng 19 250 50 0 empty empty empty 0 -10 0 12 #fcfcfc #000000 #000000;
#X obj 1141 1282 unpack f f f f;
#X obj 1053 1333 send angle1;
#X obj 1167 1343 send angle2;
#X obj 1271 1343 send anglevel1;
#X obj 1398 1346 send anglevel2;
#X obj 297 118 bng 19 250 50 0 empty empty empty 0 -10 0 12 #fcfcfc #000000 #000000;
#X obj 554 -51 loadbang;
#X obj 554 -27 t b b b;
#X connect 0 0 7 0;
#X connect 1 0 7 1;
#X connect 1 1 7 2;
#X connect 1 2 7 3;
#X connect 1 3 7 4;
#X connect 1 4 7 5;
#X connect 1 5 7 6;
#X connect 1 6 7 7;
#X connect 1 7 7 8;
#X connect 6 0 1 0;
#X connect 7 0 2 0;
#X connect 7 1 3 0;
#X connect 7 2 4 0;
#X connect 7 3 5 0;
#X connect 9 0 27 0;
#X connect 9 0 59 0;
#X connect 9 1 28 0;
#X connect 9 1 59 1;
#X connect 9 2 29 0;
#X connect 9 2 59 2;
#X connect 9 3 30 0;
#X connect 9 3 59 3;
#X connect 10 0 12 0;
#X connect 12 0 9 1;
#X connect 12 1 9 2;
#X connect 12 2 9 3;
#X connect 12 3 9 4;
#X connect 13 0 19 0;
#X connect 13 1 20 0;
#X connect 13 2 21 0;
#X connect 13 3 22 0;
#X connect 17 0 16 0;
#X connect 19 0 23 0;
#X connect 19 0 9 5;
#X connect 20 0 24 0;
#X connect 20 0 9 6;
#X connect 21 0 25 0;
#X connect 21 0 9 7;
#X connect 22 0 26 0;
#X connect 22 0 9 8;
#X connect 27 0 34 0;
#X connect 27 0 31 5;
#X connect 28 0 35 0;
#X connect 28 0 31 6;
#X connect 29 0 36 0;
#X connect 29 0 31 7;
#X connect 30 0 37 0;
#X connect 30 0 31 8;
#X connect 31 0 40 0;
#X connect 31 0 57 0;
#X connect 31 1 39 0;
#X connect 31 1 57 1;
#X connect 31 2 41 0;
#X connect 31 2 57 2;
#X connect 31 3 42 0;
#X connect 31 3 57 3;
#X connect 32 0 31 0;
#X connect 33 0 13 0;
#X connect 38 0 17 0;
#X connect 39 0 44 6;
#X connect 40 0 44 5;
#X connect 41 0 44 7;
#X connect 42 0 44 8;
#X connect 44 0 47 0;
#X connect 44 0 55 0;
#X connect 44 1 48 0;
#X connect 44 1 55 1;
#X connect 44 2 49 0;
#X connect 44 2 55 2;
#X connect 44 3 50 0;
#X connect 44 3 55 3;
#X connect 45 0 44 0;
#X connect 47 0 51 5;
#X connect 48 0 51 6;
#X connect 49 0 51 7;
#X connect 50 0 51 8;
#X connect 51 0 52 0;
#X connect 51 1 52 1;
#X connect 51 2 52 2;
#X connect 51 3 52 3;
#X connect 52 0 53 0;
#X connect 53 0 64 0;
#X connect 54 0 51 0;
#X connect 55 0 56 0;
#X connect 56 0 63 0;
#X connect 57 0 58 0;
#X connect 58 0 62 0;
#X connect 59 0 60 0;
#X connect 60 0 61 0;
#X connect 61 0 67 0;
#X connect 61 1 68 0;
#X connect 61 2 69 0;
#X connect 61 3 70 0;
#X connect 62 0 71 0;
#X connect 62 1 72 0;
#X connect 62 2 73 0;
#X connect 62 3 74 0;
#X connect 63 0 75 0;
#X connect 63 1 76 0;
#X connect 63 2 77 0;
#X connect 63 3 78 0;
#X connect 64 0 79 0;
#X connect 64 1 80 0;
#X connect 64 2 81 0;
#X connect 64 3 82 0;
#X connect 67 0 83 1;
#X connect 68 0 86 1;
#X connect 69 0 87 1;
#X connect 70 0 88 1;
#X connect 71 0 83 0;
#X connect 72 0 86 0;
#X connect 73 0 87 0;
#X connect 74 0 88 0;
#X connect 75 0 84 0;
#X connect 76 0 89 0;
#X connect 77 0 90 0;
#X connect 78 0 91 0;
#X connect 79 0 85 0;
#X connect 80 0 92 0;
#X connect 81 0 93 0;
#X connect 82 0 94 0;
#X connect 83 0 84 1;
#X connect 84 0 85 1;
#X connect 85 0 95 0;
#X connect 86 0 89 1;
#X connect 87 0 90 1;
#X connect 88 0 91 1;
#X connect 89 0 92 1;
#X connect 90 0 93 1;
#X connect 91 0 94 1;
#X connect 92 0 95 1;
#X connect 93 0 95 2;
#X connect 94 0 95 3;
#X connect 95 0 96 0;
#X connect 96 0 98 0;
#X connect 97 0 19 0;
#X connect 97 0 20 0;
#X connect 97 0 21 0;
#X connect 97 0 22 0;
#X connect 98 0 99 0;
#X connect 98 1 100 0;
#X connect 98 2 101 0;
#X connect 98 3 102 0;
#X connect 103 0 9 0;
#X connect 104 0 105 0;
#X connect 105 0 10 0;
#X connect 105 1 97 0;
#X connect 105 2 33 0;
