#N canvas 0 38 1082 841 12;
#X obj 18 88 bng 19 250 50 0 empty empty empty 0 -10 0 12 #fcfcfc #000000 #000000;
#X obj 65 71 unpack f f f f f f f f;
#X floatatom 30 173 5 0 0 0 - - - 0;
#X floatatom 82 177 5 0 0 0 - - - 0;
#X floatatom 128 183 5 0 0 0 - - - 0;
#X floatatom 185 183 5 0 0 0 - - - 0;
#X msg 65 47 list 1 2 1 2 1.4 1.3 0 0;
#X obj 85 138 doublependmotion;
#X text 277 145 K1;
#X obj 317 144 doublependmotion;
#X obj 272 14 bng 19 250 50 0 empty empty empty 0 -10 0 12 #fcfcfc #000000 #000000;
#X obj 332 188 pack f f f f;
#X listbox 338 233 45 0 0 0 - - - 0;
#X listbox 571 77 20 0 0 0 - - - 0;
#X msg 350 40 list 1 2 1 2;
#X text 345 18 constants: L1 \, M1 \, L2 \, M2;
#X obj 350 64 unpack f f f f;
#X obj 442 98 unpack f f f f;
#X text 542 -1 start conditions: angle1 \, angle2 \, anglevel1 \, anglevel2;
#X obj 275 40 t b b b;
#X text 285 438 K2;
#X obj 22 257 v timestep;
#X msg 21 227 0.1;
#X text 763 114 CUR STATE;
#X obj 338 256 unpack f f f f;
#X obj 664 152 v angle1;
#X obj 741 154 v angle2;
#X obj 811 156 v anglevel1;
#X obj 906 157 v anglevel2;
#X floatatom 664 176 5 0 0 0 - - - 0;
#X floatatom 741 178 5 0 0 0 - - - 0;
#X floatatom 811 180 5 0 0 0 - - - 0;
#X floatatom 906 181 5 0 0 0 - - - 0;
#X obj 72 306 expr ($f1 * (timestep / 2)) + angle1;
#X obj 298 334 expr ($f1 * (timestep / 2)) + angle2;
#X obj 517 303 expr ($f1 * (timestep / 2)) + anglevel1;
#X obj 779 349 expr ($f1 * (timestep / 2)) + anglevel2;
#X obj 341 434 doublependmotion;
#X obj 341 458 pack f f f f;
#X listbox 341 482 45 0 0 0 - - - 0;
#X obj 341 505 unpack f f f f;
#X obj 270 404 bng 19 250 50 0 empty empty empty 0 -10 0 12 #fcfcfc #000000 #000000;
#X msg 545 33 list 1.4 1.3 1 1;
#X floatatom 72 348 5 0 0 0 - - - 0;
#X floatatom 275 366 5 0 0 0 - - - 0;
#X floatatom 582 350 5 0 0 0 - - - 0;
#X floatatom 774 399 5 0 0 0 - - - 0;
#X obj 19 203 loadbang;
#X obj 280 596 expr ($f1 * (timestep / 2)) + angle1;
#X obj 23 553 expr ($f1 * (timestep / 2)) + angle1;
#X obj 535 556 expr ($f1 * (timestep / 2)) + angle1;
#X obj 778 597 expr ($f1 * (timestep / 2)) + angle1;
#X text 286 685 K3;
#X obj 344 675 doublependmotion;
#X obj 254 641 bng 19 250 50 0 empty empty empty 0 -10 0 12 #fcfcfc #000000 #000000;
#X obj 344 699 pack f f f f;
#X listbox 344 723 45 0 0 0 - - - 0;
#X text 300 887 K4;
#X obj 344 746 unpack f f f f;
#X obj 90 803 expr ($f1 * timestep) + angle1;
#X obj 333 796 expr ($f1 * timestep) + angle1;
#X obj 573 800 expr ($f1 * timestep) + angle1;
#X obj 813 800 expr ($f1 * timestep) + angle1;
#X obj 333 890 doublependmotion;
#X obj 333 914 pack f f f f;
#X listbox 333 938 48 0 0 0 - - - 0;
#X obj 257 864 bng 19 250 50 0 empty empty empty 0 -10 0 12 #fcfcfc #000000 #000000;
#X connect 0 0 7 0;
#X connect 1 0 7 1;
#X connect 1 1 7 2;
#X connect 1 2 7 3;
#X connect 1 3 7 4;
#X connect 1 4 7 5;
#X connect 1 5 7 6;
#X connect 1 6 7 7;
#X connect 1 7 7 8;
#X connect 6 0 1 0;
#X connect 7 0 2 0;
#X connect 7 1 3 0;
#X connect 7 2 4 0;
#X connect 7 3 5 0;
#X connect 9 0 11 0;
#X connect 9 1 11 1;
#X connect 9 2 11 2;
#X connect 9 3 11 3;
#X connect 10 0 19 0;
#X connect 11 0 12 0;
#X connect 12 0 24 0;
#X connect 13 0 17 0;
#X connect 14 0 16 0;
#X connect 16 0 9 1;
#X connect 16 1 9 2;
#X connect 16 2 9 3;
#X connect 16 3 9 4;
#X connect 17 0 9 5;
#X connect 17 0 25 0;
#X connect 17 1 9 6;
#X connect 17 1 26 0;
#X connect 17 2 9 7;
#X connect 17 2 27 0;
#X connect 17 3 9 8;
#X connect 17 3 28 0;
#X connect 19 0 9 0;
#X connect 19 1 14 0;
#X connect 19 2 42 0;
#X connect 22 0 21 0;
#X connect 24 0 33 0;
#X connect 24 1 34 0;
#X connect 24 2 35 0;
#X connect 24 3 36 0;
#X connect 25 0 29 0;
#X connect 26 0 30 0;
#X connect 27 0 31 0;
#X connect 28 0 32 0;
#X connect 33 0 43 0;
#X connect 33 0 37 5;
#X connect 34 0 44 0;
#X connect 34 0 37 6;
#X connect 35 0 45 0;
#X connect 35 0 37 7;
#X connect 36 0 46 0;
#X connect 36 0 37 8;
#X connect 37 0 38 0;
#X connect 37 1 38 1;
#X connect 37 2 38 2;
#X connect 37 3 38 3;
#X connect 38 0 39 0;
#X connect 39 0 40 0;
#X connect 40 0 49 0;
#X connect 40 1 48 0;
#X connect 40 2 50 0;
#X connect 40 3 51 0;
#X connect 41 0 37 0;
#X connect 42 0 13 0;
#X connect 47 0 22 0;
#X connect 48 0 53 6;
#X connect 49 0 53 5;
#X connect 50 0 53 7;
#X connect 51 0 53 8;
#X connect 53 0 55 0;
#X connect 53 1 55 1;
#X connect 53 2 55 2;
#X connect 53 3 55 3;
#X connect 54 0 53 0;
#X connect 55 0 56 0;
#X connect 56 0 58 0;
#X connect 58 0 59 0;
#X connect 58 1 60 0;
#X connect 58 2 61 0;
#X connect 58 3 62 0;
#X connect 59 0 63 5;
#X connect 60 0 63 6;
#X connect 61 0 63 7;
#X connect 62 0 63 8;
#X connect 63 0 64 0;
#X connect 63 1 64 1;
#X connect 63 2 64 2;
#X connect 63 3 64 3;
#X connect 64 0 65 0;
#X connect 66 0 63 0;
