#N canvas 1513 -587 1919 1027 12;
#X obj 390 307 loadbang;
#X obj 109 459 partial;
#X obj 458 458 partial;
#X obj 227 459 partial;
#X obj 399 458 partial;
#X obj 169 459 partial;
#X obj 636 458 partial;
#X obj 341 458 partial;
#X obj 576 458 partial;
#X obj 284 459 partial;
#X obj 517 458 partial;
#X obj 167 109 partial;
#X obj 391 643 output~;
#X obj 538 25 bng 19 250 50 0 empty empty empty 0 -10 0 12 #fcfcfc #000000 #000000;
#X obj 28 319 hsl 162 19 1 1.61803 0 0 empty empty empty -2 -10 0 12 #fcfcfc #000000 #000000 0 1;
#X floatatom -39 329 5 0 0 0 - - - 0;
#X floatatom -26 426 5 0 0 0 - - - 0;
#X obj -25 402 +;
#X obj -27 450 +;
#X floatatom -26 473 5 0 0 0 - - - 0;
#X obj -25 498 +;
#X floatatom -25 525 5 0 0 0 - - - 0;
#X msg -42 364 1;
#X obj -11 226 loadbang;
#X obj -34 253 trigger bang bang;
#X obj -24 560 +;
#X floatatom -24 584 5 0 0 0 - - - 0;
#X obj -24 610 +;
#X floatatom -24 634 5 0 0 0 - - - 0;
#X obj -23 664 +;
#X floatatom -23 688 5 0 0 0 - - - 0;
#X obj -22 714 +;
#X floatatom -22 738 5 0 0 0 - - - 0;
#X obj -21 766 +;
#X floatatom -21 790 5 0 0 0 - - - 0;
#X obj -20 819 +;
#X floatatom -20 843 5 0 0 0 - - - 0;
#X text 1035 622 triangle wave;
#X text 1034 675 sawtooth wave;
#X msg 1033 699 list 1 0.5 0.33333 0.25 0.2 0.16667 0.14286 0.125 0.11111 0.1;
#X text 1036 739 square wave;
#X text 1037 795 sine wave;
#X text 531 -11 OFF;
#X msg 1033 642 list 1 0 0.11111 0 0.04 0 0.02041 0 0.01234 0;
#X msg 1032 768 list 1 0 0.33333 0 0.2 0 0.14286 0 0.11111 0;
#X msg 1037 820 list 1 0 0 0 0 0 0 0 0 0;
#X text 95 22 partial abstraction tutorial:;
#X text 113 138 outlet: audio signal;
#X obj 763 55 rkgraphs;
#X obj 677 -164 unpack f f f f f f f f f f;
#X obj 558 -122 * 10;
#X obj 558 -98 mod 10;
#X obj 610 -121 * 10;
#X obj 610 -97 mod 10;
#X obj 662 -121 * 10;
#X obj 662 -97 mod 10;
#X obj 712 -120 * 10;
#X obj 712 -96 mod 10;
#X obj 764 -118 * 10;
#X obj 764 -94 mod 10;
#X obj 917 -119 * 10;
#X obj 917 -95 mod 10;
#X obj 1020 -119 * 10;
#X obj 1020 -95 mod 10;
#X obj 865 -119 * 10;
#X obj 865 -95 mod 10;
#X obj 969 -118 * 10;
#X obj 969 -94 mod 10;
#X obj 815 -118 * 10;
#X obj 815 -94 mod 10;
#X obj 717 -16 pack f f f f f f f f f f;
#X listbox 717 8 70 0 0 0 - - - 0;
#X obj 558 -74 + 1;
#X obj 610 -73 + 1;
#X obj 662 -73 + 1;
#X obj 712 -72 + 1;
#X obj 764 -70 + 1;
#X obj 815 -70 + 1;
#X obj 865 -71 + 1;
#X obj 917 -71 + 1;
#X obj 969 -70 + 1;
#X obj 1020 -71 + 1;
#X obj 843 -264 list append;
#X listbox 675 -195 83 0 0 0 - - - 0;
#X listbox 997 -286 6 0 0 0 - - - 0;
#X obj 873 -419 bng 19 250 50 0 empty empty empty 0 -10 0 12 #fcfcfc #000000 #000000;
#X obj 873 -395 t b b;
#X msg 737 -266 set;
#X obj 727 -404 bng 19 250 50 0 empty empty empty 0 -10 0 12 #fcfcfc #000000 #000000;
#X obj 746 -375 f;
#X obj 691 -344 + 10;
#X floatatom 746 -351 5 0 0 0 - - - 0;
#X msg 767 -408 0;
#X obj 841 -230 list split 10;
#X obj 841 -312 tabread anglevel1_arr;
#X obj 539 -335 metro 500;
#X obj 507 -377 bng 19 250 50 0 empty empty empty 0 -10 0 12 #fcfcfc #000000 #000000;
#X msg 555 -379 0;
#X obj 746 -327 mod 9990;
#X obj 538 66 harmonics;
#X msg 795 496 level \$1;
#X obj 777 350 notein;
#X floatatom 796 424 5 0 0 0 - - - 0;
#X floatatom 325 265 5 0 0 0 - - - 0;
#X floatatom 796 471 5 0 0 0 - - - 0;
#X obj 796 447 * 0.00787402;
#X obj 325 288 mtof;
#X text 52 59 inlets left to right: 1 frequency \, 2 frequency multiple \, 3 amplitude;
#X msg 390 331 440;
#X floatatom 325 312 5 0 0 0 - - - 0;
#X obj 753 386 stripnote;
#X obj 134 198 ctlin 1;
#X floatatom 134 222 5 0 0 0 - - - 0;
#X obj 134 245 * 0.00486638;
#X obj 134 269 + 1;
#X connect 0 0 108 0;
#X connect 1 0 12 0;
#X connect 2 0 12 0;
#X connect 3 0 12 0;
#X connect 4 0 12 0;
#X connect 5 0 12 0;
#X connect 6 0 12 0;
#X connect 7 0 12 0;
#X connect 8 0 12 0;
#X connect 9 0 12 0;
#X connect 10 0 12 0;
#X connect 13 0 99 0;
#X connect 14 0 15 0;
#X connect 14 0 17 0;
#X connect 14 0 18 0;
#X connect 14 0 20 0;
#X connect 14 0 25 0;
#X connect 14 0 27 0;
#X connect 14 0 29 0;
#X connect 14 0 31 0;
#X connect 14 0 33 0;
#X connect 14 0 35 0;
#X connect 15 0 1 1;
#X connect 16 0 18 1;
#X connect 16 0 5 1;
#X connect 17 0 16 0;
#X connect 18 0 19 0;
#X connect 19 0 20 1;
#X connect 19 0 3 1;
#X connect 20 0 21 0;
#X connect 21 0 25 1;
#X connect 21 0 9 1;
#X connect 22 0 17 1;
#X connect 23 0 24 0;
#X connect 24 0 14 0;
#X connect 24 1 22 0;
#X connect 25 0 26 0;
#X connect 26 0 27 1;
#X connect 26 0 7 1;
#X connect 27 0 28 0;
#X connect 28 0 29 1;
#X connect 28 0 4 1;
#X connect 29 0 30 0;
#X connect 30 0 31 1;
#X connect 30 0 2 1;
#X connect 31 0 32 0;
#X connect 32 0 33 1;
#X connect 32 0 10 1;
#X connect 33 0 34 0;
#X connect 34 0 35 1;
#X connect 34 0 8 1;
#X connect 35 0 36 0;
#X connect 36 0 6 1;
#X connect 49 0 50 0;
#X connect 49 1 52 0;
#X connect 49 2 54 0;
#X connect 49 3 56 0;
#X connect 49 4 58 0;
#X connect 49 5 68 0;
#X connect 49 6 64 0;
#X connect 49 7 60 0;
#X connect 49 8 66 0;
#X connect 49 9 62 0;
#X connect 50 0 51 0;
#X connect 51 0 72 0;
#X connect 52 0 53 0;
#X connect 53 0 73 0;
#X connect 54 0 55 0;
#X connect 55 0 74 0;
#X connect 56 0 57 0;
#X connect 57 0 75 0;
#X connect 58 0 59 0;
#X connect 59 0 76 0;
#X connect 60 0 61 0;
#X connect 61 0 79 0;
#X connect 62 0 63 0;
#X connect 63 0 81 0;
#X connect 64 0 65 0;
#X connect 65 0 78 0;
#X connect 66 0 67 0;
#X connect 67 0 80 0;
#X connect 68 0 69 0;
#X connect 69 0 77 0;
#X connect 70 0 71 0;
#X connect 71 0 99 1;
#X connect 72 0 70 0;
#X connect 73 0 70 1;
#X connect 74 0 70 2;
#X connect 75 0 70 3;
#X connect 76 0 70 4;
#X connect 77 0 70 5;
#X connect 78 0 70 6;
#X connect 79 0 70 7;
#X connect 80 0 70 8;
#X connect 81 0 70 9;
#X connect 82 0 93 0;
#X connect 83 0 82 1;
#X connect 83 0 49 0;
#X connect 84 0 82 1;
#X connect 85 0 86 0;
#X connect 85 0 13 0;
#X connect 86 0 87 0;
#X connect 86 1 84 0;
#X connect 87 0 83 0;
#X connect 88 0 89 0;
#X connect 89 0 90 0;
#X connect 89 0 91 0;
#X connect 90 0 89 1;
#X connect 91 0 98 0;
#X connect 92 0 89 0;
#X connect 93 0 83 0;
#X connect 93 2 83 0;
#X connect 94 0 82 0;
#X connect 95 0 88 0;
#X connect 96 0 95 0;
#X connect 97 0 95 0;
#X connect 98 0 94 0;
#X connect 99 0 1 2;
#X connect 99 1 5 2;
#X connect 99 2 3 2;
#X connect 99 3 9 2;
#X connect 99 4 7 2;
#X connect 99 5 4 2;
#X connect 99 6 2 2;
#X connect 99 7 10 2;
#X connect 99 8 8 2;
#X connect 99 9 6 2;
#X connect 100 0 12 0;
#X connect 101 0 110 0;
#X connect 101 1 110 1;
#X connect 102 0 105 0;
#X connect 103 0 106 0;
#X connect 104 0 100 0;
#X connect 105 0 104 0;
#X connect 106 0 109 0;
#X connect 108 0 1 0;
#X connect 108 0 5 0;
#X connect 108 0 3 0;
#X connect 108 0 9 0;
#X connect 108 0 7 0;
#X connect 108 0 4 0;
#X connect 108 0 2 0;
#X connect 108 0 10 0;
#X connect 108 0 8 0;
#X connect 108 0 6 0;
#X connect 109 0 1 0;
#X connect 109 0 5 0;
#X connect 109 0 3 0;
#X connect 109 0 9 0;
#X connect 109 0 7 0;
#X connect 109 0 4 0;
#X connect 109 0 2 0;
#X connect 109 0 10 0;
#X connect 109 0 8 0;
#X connect 109 0 6 0;
#X connect 110 0 103 0;
#X connect 110 1 102 0;
#X connect 111 0 112 0;
#X connect 112 0 113 0;
#X connect 113 0 114 0;
#X connect 114 0 14 0;
