#N canvas 0 38 1512 842 12;
#X obj 390 307 loadbang;
#X msg 390 331 440;
#X obj 109 459 partial;
#X obj 458 458 partial;
#X obj 227 459 partial;
#X obj 399 458 partial;
#X obj 169 459 partial;
#X obj 636 458 partial;
#X obj 341 458 partial;
#X obj 576 458 partial;
#X obj 284 459 partial;
#X obj 517 458 partial;
#X floatatom 74 112 5 0 0 0 - - - 0;
#X msg 126 108 440;
#X floatatom 172 114 5 0 1 0 - - - 0;
#X obj 103 150 partial;
#X obj 391 643 output~;
#X obj 579 29 vradio 19 1 0 11 empty empty empty 0 -10 0 12 #fcfcfc #000000 #000000 0;
#X obj 579 266 -;
#X floatatom 579 290 5 0 0 0 - - - 0;
#X obj 579 242 swap 10;
#X obj 579 313 * 0.1;
#X obj 636 29 vradio 19 1 0 11 empty empty empty 0 -10 0 12 #fcfcfc #000000 #000000 0;
#X obj 636 266 -;
#X floatatom 636 290 5 0 0 0 - - - 0;
#X obj 636 242 swap 10;
#X obj 636 313 * 0.1;
#X obj 693 29 vradio 19 1 0 11 empty empty empty 0 -10 0 12 #fcfcfc #000000 #000000 0;
#X obj 693 266 -;
#X floatatom 693 290 5 0 0 0 - - - 0;
#X obj 693 242 swap 10;
#X obj 693 313 * 0.1;
#X obj 750 29 vradio 19 1 0 11 empty empty empty 0 -10 0 12 #fcfcfc #000000 #000000 0;
#X obj 750 266 -;
#X floatatom 750 290 5 0 0 0 - - - 0;
#X obj 750 242 swap 10;
#X obj 750 313 * 0.1;
#X obj 808 29 vradio 19 1 0 11 empty empty empty 0 -10 0 12 #fcfcfc #000000 #000000 0;
#X obj 808 266 -;
#X floatatom 808 290 5 0 0 0 - - - 0;
#X obj 808 242 swap 10;
#X obj 808 313 * 0.1;
#X obj 866 29 vradio 19 1 0 11 empty empty empty 0 -10 0 12 #fcfcfc #000000 #000000 0;
#X obj 866 266 -;
#X floatatom 866 290 5 0 0 0 - - - 0;
#X obj 866 242 swap 10;
#X obj 866 313 * 0.1;
#X obj 923 29 vradio 19 1 0 11 empty empty empty 0 -10 0 12 #fcfcfc #000000 #000000 0;
#X obj 923 266 -;
#X floatatom 923 290 5 0 0 0 - - - 0;
#X obj 923 242 swap 10;
#X obj 923 313 * 0.1;
#X obj 980 29 vradio 19 1 0 11 empty empty empty 0 -10 0 12 #fcfcfc #000000 #000000 0;
#X obj 980 266 -;
#X floatatom 980 290 5 0 0 0 - - - 0;
#X obj 980 242 swap 10;
#X obj 980 313 * 0.1;
#X obj 1038 29 vradio 19 1 0 11 empty empty empty 0 -10 0 12 #fcfcfc #000000 #000000 0;
#X obj 1038 266 -;
#X floatatom 1038 290 5 0 0 0 - - - 0;
#X obj 1038 242 swap 10;
#X obj 1038 313 * 0.1;
#X obj 1096 28 vradio 19 1 0 11 empty empty empty 0 -10 0 12 #fcfcfc #000000 #000000 0;
#X obj 1096 265 -;
#X floatatom 1096 289 5 0 0 0 - - - 0;
#X obj 1096 241 swap 10;
#X obj 1096 312 * 0.1;
#X obj 839 -52 bng 19 250 50 0 empty empty empty 0 -10 0 12 #fcfcfc #000000 #000000;
#X msg 839 -28 10;
#X obj 838 -76 loadbang;
#X floatatom 242 345 5 0 0 0 - - - 0;
#X obj 56 279 hsl 162 19 1 1.61803 0 0 empty empty empty -2 -10 0 12 #fcfcfc #000000 #000000 0 1;
#X floatatom 123 308 5 0 0 0 - - - 0;
#X floatatom -7 392 5 0 0 0 - - - 0;
#X obj -9 361 +;
#X obj -7 427 +;
#X floatatom -7 458 5 0 0 0 - - - 0;
#X obj -4 496 +;
#X floatatom -4 533 5 0 0 0 - - - 0;
#X msg -10 326 1;
#X obj 19 206 loadbang;
#X text 62 39 partial abstraction tutorial: left outlet is frequency multiple \, middle outlet is frequency \, right outlet is amplitude;
#X obj 19 236 trigger bang bang;
#X connect 0 0 1 0;
#X connect 1 0 2 1;
#X connect 1 0 6 1;
#X connect 1 0 4 1;
#X connect 1 0 10 1;
#X connect 1 0 8 1;
#X connect 1 0 5 1;
#X connect 1 0 3 1;
#X connect 1 0 11 1;
#X connect 1 0 9 1;
#X connect 1 0 7 1;
#X connect 1 0 70 0;
#X connect 2 0 16 0;
#X connect 3 0 16 0;
#X connect 4 0 16 0;
#X connect 5 0 16 0;
#X connect 6 0 16 0;
#X connect 7 0 16 0;
#X connect 8 0 16 0;
#X connect 9 0 16 0;
#X connect 10 0 16 0;
#X connect 11 0 16 0;
#X connect 17 0 20 0;
#X connect 18 0 19 0;
#X connect 19 0 21 0;
#X connect 20 0 18 0;
#X connect 20 1 18 1;
#X connect 21 0 2 2;
#X connect 22 0 25 0;
#X connect 23 0 24 0;
#X connect 24 0 26 0;
#X connect 25 0 23 0;
#X connect 25 1 23 1;
#X connect 26 0 6 2;
#X connect 27 0 30 0;
#X connect 28 0 29 0;
#X connect 29 0 31 0;
#X connect 30 0 28 0;
#X connect 30 1 28 1;
#X connect 31 0 4 2;
#X connect 32 0 35 0;
#X connect 33 0 34 0;
#X connect 34 0 36 0;
#X connect 35 0 33 0;
#X connect 35 1 33 1;
#X connect 36 0 10 2;
#X connect 37 0 40 0;
#X connect 38 0 39 0;
#X connect 39 0 41 0;
#X connect 40 0 38 0;
#X connect 40 1 38 1;
#X connect 41 0 8 2;
#X connect 42 0 45 0;
#X connect 43 0 44 0;
#X connect 44 0 46 0;
#X connect 45 0 43 0;
#X connect 45 1 43 1;
#X connect 46 0 5 2;
#X connect 47 0 50 0;
#X connect 48 0 49 0;
#X connect 49 0 51 0;
#X connect 50 0 48 0;
#X connect 50 1 48 1;
#X connect 51 0 3 2;
#X connect 52 0 55 0;
#X connect 53 0 54 0;
#X connect 54 0 56 0;
#X connect 55 0 53 0;
#X connect 55 1 53 1;
#X connect 56 0 11 2;
#X connect 57 0 60 0;
#X connect 58 0 59 0;
#X connect 59 0 61 0;
#X connect 60 0 58 0;
#X connect 60 1 58 1;
#X connect 61 0 9 2;
#X connect 62 0 65 0;
#X connect 63 0 64 0;
#X connect 64 0 66 0;
#X connect 65 0 63 0;
#X connect 65 1 63 1;
#X connect 66 0 7 2;
#X connect 67 0 68 0;
#X connect 68 0 17 0;
#X connect 68 0 22 0;
#X connect 68 0 27 0;
#X connect 68 0 32 0;
#X connect 68 0 37 0;
#X connect 68 0 42 0;
#X connect 68 0 47 0;
#X connect 68 0 52 0;
#X connect 68 0 57 0;
#X connect 68 0 62 0;
#X connect 69 0 67 0;
#X connect 70 0 2 1;
#X connect 70 0 6 1;
#X connect 70 0 4 1;
#X connect 70 0 10 1;
#X connect 70 0 8 1;
#X connect 70 0 5 1;
#X connect 70 0 3 1;
#X connect 70 0 11 1;
#X connect 70 0 9 1;
#X connect 70 0 7 1;
#X connect 71 0 72 0;
#X connect 71 0 74 0;
#X connect 71 0 75 0;
#X connect 71 0 77 0;
#X connect 73 0 75 1;
#X connect 73 0 6 0;
#X connect 74 0 73 0;
#X connect 75 0 76 0;
#X connect 76 0 77 1;
#X connect 76 0 4 0;
#X connect 77 0 78 0;
#X connect 78 0 10 0;
#X connect 79 0 74 1;
#X connect 79 0 2 0;
#X connect 80 0 82 0;
#X connect 82 0 79 0;
#X connect 82 1 71 0;
