#N canvas 1794 -498 1512 842 12;
#X obj 390 307 loadbang;
#X msg 390 331 440;
#X obj 109 459 partial;
#X obj 458 458 partial;
#X obj 227 459 partial;
#X obj 399 458 partial;
#X obj 169 459 partial;
#X obj 636 458 partial;
#X obj 341 458 partial;
#X obj 576 458 partial;
#X obj 284 459 partial;
#X obj 517 458 partial;
#X floatatom 46 110 5 0 0 0 - - - 0;
#X msg 97 111 440;
#X floatatom 139 112 5 0 1 0 - - - 0;
#X obj 103 150 partial;
#X obj 391 643 output~;
#X obj 626 90 CAharmonics;
#X obj 626 49 bng 19 250 50 0 empty empty empty 0 -10 0 12 #fcfcfc #000000 #000000;
#X obj 28 319 hsl 162 19 1 1.61803 0 0 empty empty empty -2 -10 0 12 #fcfcfc #000000 #000000 0 1;
#X floatatom -39 329 5 0 0 0 - - - 0;
#X floatatom -26 426 5 0 0 0 - - - 0;
#X obj -25 402 +;
#X obj -27 450 +;
#X floatatom -26 473 5 0 0 0 - - - 0;
#X obj -25 498 +;
#X floatatom -25 525 5 0 0 0 - - - 0;
#X msg -42 364 1;
#X obj -11 226 loadbang;
#X obj -34 253 trigger bang bang;
#X obj -24 560 +;
#X floatatom -24 584 5 0 0 0 - - - 0;
#X obj -24 610 +;
#X floatatom -24 634 5 0 0 0 - - - 0;
#X obj -23 664 +;
#X floatatom -23 688 5 0 0 0 - - - 0;
#X obj -22 714 +;
#X floatatom -22 738 5 0 0 0 - - - 0;
#X obj -21 766 +;
#X floatatom -21 790 5 0 0 0 - - - 0;
#X obj -20 819 +;
#X floatatom -20 843 5 0 0 0 - - - 0;
#X text 897 38 triangle wave;
#X text 896 91 sawtooth wave;
#X msg 895 115 list 1 0.5 0.33333 0.25 0.2 0.16667 0.14286 0.125 0.11111 0.1;
#X text 898 155 square wave;
#X text 899 211 sine wave;
#X floatatom 202 367 5 0 0 0 - - - 0;
#X obj 231 332 loadbang;
#X text 62 39 partial abstraction tutorial: from left to right \, inlets are frequency multiple \, frequency \, amplitude \, and frequency modification (+ or - some amount) (NOTE: still pending on this one);
#X text 621 28 OFF;
#X msg 895 58 list 1 0 0.11111 0 0.04 0 0.02041 0 0.01234 0;
#X msg 894 184 list 1 0 0.33333 0 0.2 0 0.14286 0 0.11111 0;
#X floatatom 192 111 5 0 0 0 - - - 0;
#X msg 899 236 list 1 0 0 0 0 0 0 0 0 0;
#X text 901 276 right now \, a potential issue with these default waves is that all the values are hard-coded \, so you can't make them louder (and some of them like the triangle wave tend to be quite quiet). I've done some digging to try and find something that would allow you to apply the same operation to the entire list before passing it to the harmonics \, but have not had any luck as of yet.;
#X obj 735 653 partialfilt;
#X obj 737 721 output~;
#X obj 633 598 osc~ 440;
#X floatatom 721 580 5 0 0 0 - - - 0;
#X msg 769 582 1;
#X floatatom 814 580 5 0 0 0 - - - 0;
#X floatatom 864 581 5 0 0 0 - - - 0;
#X obj 608 638 osc~ 880;
#X msg 1368 408 440;
#X obj 1087 536 partial;
#X obj 1436 535 partial;
#X obj 1205 536 partial;
#X obj 1377 535 partial;
#X obj 1147 536 partial;
#X obj 1614 535 partial;
#X obj 1319 535 partial;
#X obj 1554 535 partial;
#X obj 1262 536 partial;
#X obj 1495 535 partial;
#X floatatom 1180 444 5 0 0 0 - - - 0;
#X obj 1209 409 loadbang;
#X obj 1366 376 loadbang;
#X obj 1262 630 sigsum, f 34;
#X obj 1124 715 partialfilt;
#X obj 1030 722 partialfilt;
#X obj 1673 713 partialfilt;
#X obj 936 725 partialfilt;
#X obj 1216 713 partialfilt;
#X obj 1307 712 partialfilt;
#X obj 1400 712 partialfilt;
#X obj 1493 711 partialfilt;
#X obj 1582 713 partialfilt;
#X obj 1763 711 partialfilt;
#X obj 1593 230 filtmatrix;
#X obj 1593 195 bng 19 250 50 0 empty empty empty 0 -10 0 12 #fcfcfc #000000 #000000;
#X text 1589 168 OFF;
#X obj 843 483 expr;
#X connect 0 0 1 0;
#X connect 1 0 6 1;
#X connect 1 0 2 1;
#X connect 1 0 4 1;
#X connect 1 0 10 1;
#X connect 1 0 8 1;
#X connect 1 0 5 1;
#X connect 1 0 3 1;
#X connect 1 0 11 1;
#X connect 1 0 9 1;
#X connect 1 0 7 1;
#X connect 2 0 16 0;
#X connect 3 0 16 0;
#X connect 4 0 16 0;
#X connect 5 0 16 0;
#X connect 6 0 16 0;
#X connect 7 0 16 0;
#X connect 8 0 16 0;
#X connect 9 0 16 0;
#X connect 10 0 16 0;
#X connect 11 0 16 0;
#X connect 17 0 2 2;
#X connect 17 1 6 2;
#X connect 17 2 4 2;
#X connect 17 3 10 2;
#X connect 17 4 8 2;
#X connect 17 5 5 2;
#X connect 17 6 3 2;
#X connect 17 7 11 2;
#X connect 17 8 9 2;
#X connect 17 9 7 2;
#X connect 18 0 17 0;
#X connect 19 0 20 0;
#X connect 19 0 22 0;
#X connect 19 0 23 0;
#X connect 19 0 25 0;
#X connect 19 0 30 0;
#X connect 19 0 32 0;
#X connect 19 0 34 0;
#X connect 19 0 36 0;
#X connect 19 0 38 0;
#X connect 19 0 40 0;
#X connect 21 0 23 1;
#X connect 21 0 6 0;
#X connect 22 0 21 0;
#X connect 23 0 24 0;
#X connect 24 0 25 1;
#X connect 24 0 4 0;
#X connect 25 0 26 0;
#X connect 26 0 30 1;
#X connect 26 0 10 0;
#X connect 27 0 22 1;
#X connect 27 0 2 0;
#X connect 28 0 29 0;
#X connect 29 0 19 0;
#X connect 29 1 27 0;
#X connect 30 0 31 0;
#X connect 31 0 32 1;
#X connect 31 0 8 0;
#X connect 32 0 33 0;
#X connect 33 0 34 1;
#X connect 33 0 5 0;
#X connect 34 0 35 0;
#X connect 35 0 36 1;
#X connect 35 0 3 0;
#X connect 36 0 37 0;
#X connect 37 0 38 1;
#X connect 37 0 11 0;
#X connect 38 0 39 0;
#X connect 39 0 40 1;
#X connect 39 0 9 0;
#X connect 40 0 41 0;
#X connect 41 0 7 0;
#X connect 44 0 17 1;
#X connect 47 0 6 3;
#X connect 47 0 2 3;
#X connect 47 0 4 3;
#X connect 47 0 10 3;
#X connect 47 0 8 3;
#X connect 47 0 5 3;
#X connect 47 0 3 3;
#X connect 47 0 11 3;
#X connect 47 0 9 3;
#X connect 47 0 7 3;
#X connect 48 0 47 0;
#X connect 51 0 17 1;
#X connect 52 0 17 1;
#X connect 54 0 17 1;
#X connect 59 0 56 1;
#X connect 60 0 56 2;
#X connect 61 0 56 3;
#X connect 62 0 56 4;
#X connect 64 0 69 1;
#X connect 64 0 65 1;
#X connect 64 0 67 1;
#X connect 64 0 73 1;
#X connect 64 0 71 1;
#X connect 64 0 68 1;
#X connect 64 0 66 1;
#X connect 64 0 74 1;
#X connect 64 0 72 1;
#X connect 64 0 70 1;
#X connect 65 0 78 0;
#X connect 66 0 78 6;
#X connect 67 0 78 2;
#X connect 68 0 78 5;
#X connect 69 0 78 1;
#X connect 70 0 78 9;
#X connect 71 0 78 4;
#X connect 72 0 78 8;
#X connect 73 0 78 3;
#X connect 74 0 78 7;
#X connect 75 0 69 3;
#X connect 75 0 65 3;
#X connect 75 0 67 3;
#X connect 75 0 73 3;
#X connect 75 0 71 3;
#X connect 75 0 68 3;
#X connect 75 0 66 3;
#X connect 75 0 74 3;
#X connect 75 0 72 3;
#X connect 75 0 70 3;
#X connect 76 0 75 0;
#X connect 77 0 64 0;
#X connect 78 0 82 0;
#X connect 78 0 80 0;
#X connect 78 0 79 0;
#X connect 78 0 83 0;
#X connect 78 0 84 0;
#X connect 78 0 85 0;
#X connect 78 0 86 0;
#X connect 78 0 87 0;
#X connect 78 0 81 0;
#X connect 78 0 88 0;
#X connect 90 0 89 0;
