#N canvas 0 38 1512 842 12;
#X obj 390 307 loadbang;
#X msg 390 331 440;
#X obj 109 459 partial;
#X obj 458 458 partial;
#X obj 227 459 partial;
#X obj 399 458 partial;
#X obj 169 459 partial;
#X obj 636 458 partial;
#X obj 341 458 partial;
#X obj 576 458 partial;
#X obj 284 459 partial;
#X obj 517 458 partial;
#X floatatom 74 112 5 0 0 0 - - - 0;
#X msg 126 108 440;
#X floatatom 172 114 5 0 1 0 - - - 0;
#X obj 103 150 partial;
#X obj 391 643 output~;
#X obj 579 29 vradio 19 1 0 11 empty empty empty 0 -10 0 12 #fcfcfc #000000 #000000 0;
#X obj 579 266 -;
#X floatatom 579 290 5 0 10 0 - - - 0;
#X obj 579 242 swap 10;
#X obj 579 313 * 0.1;
#X obj 636 29 vradio 19 1 0 11 empty empty empty 0 -10 0 12 #fcfcfc #000000 #000000 0;
#X obj 636 266 -;
#X floatatom 636 290 5 0 10 0 - - - 0;
#X obj 636 242 swap 10;
#X obj 636 313 * 0.1;
#X obj 693 29 vradio 19 1 0 11 empty empty empty 0 -10 0 12 #fcfcfc #000000 #000000 0;
#X obj 693 266 -;
#X floatatom 693 290 5 0 10 0 - - - 0;
#X obj 693 242 swap 10;
#X obj 693 313 * 0.1;
#X obj 750 29 vradio 19 1 0 11 empty empty empty 0 -10 0 12 #fcfcfc #000000 #000000 0;
#X obj 750 266 -;
#X floatatom 750 290 5 0 10 0 - - - 0;
#X obj 750 242 swap 10;
#X obj 750 313 * 0.1;
#X obj 808 29 vradio 19 1 0 11 empty empty empty 0 -10 0 12 #fcfcfc #000000 #000000 0;
#X obj 808 266 -;
#X floatatom 808 290 5 0 10 0 - - - 0;
#X obj 808 242 swap 10;
#X obj 808 313 * 0.1;
#X obj 866 29 vradio 19 1 0 11 empty empty empty 0 -10 0 12 #fcfcfc #000000 #000000 0;
#X obj 866 266 -;
#X floatatom 866 290 5 0 10 0 - - - 0;
#X obj 866 242 swap 10;
#X obj 866 313 * 0.1;
#X obj 923 29 vradio 19 1 0 11 empty empty empty 0 -10 0 12 #fcfcfc #000000 #000000 0;
#X obj 923 266 -;
#X floatatom 923 290 5 0 10 0 - - - 0;
#X obj 923 242 swap 10;
#X obj 923 313 * 0.1;
#X obj 980 29 vradio 19 1 0 11 empty empty empty 0 -10 0 12 #fcfcfc #000000 #000000 0;
#X obj 980 266 -;
#X floatatom 980 290 5 0 10 0 - - - 0;
#X obj 980 242 swap 10;
#X obj 980 313 * 0.1;
#X obj 1038 29 vradio 19 1 0 11 empty empty empty 0 -10 0 12 #fcfcfc #000000 #000000 0;
#X obj 1038 266 -;
#X floatatom 1038 290 5 0 10 0 - - - 0;
#X obj 1038 242 swap 10;
#X obj 1038 313 * 0.1;
#X obj 1096 28 vradio 19 1 0 11 empty empty empty 0 -10 0 12 #fcfcfc #000000 #000000 0;
#X obj 1096 265 -;
#X floatatom 1096 289 5 0 10 0 - - - 0;
#X obj 1096 241 swap 10;
#X obj 1096 312 * 0.1;
#X obj 839 -52 bng 19 250 50 0 empty empty empty 0 -10 0 12 #fcfcfc #000000 #000000;
#X msg 839 -28 10;
#X obj 838 -76 loadbang;
#X obj 770 507 CAharmonics;
#X obj 733 482 bng 19 250 50 0 empty empty empty 0 -10 0 12 #fcfcfc #000000 #000000;
#X floatatom 784 468 5 0 0 0 - - - 0;
#X msg 897 442 list 1 2 3 4 5 6 7 8 9 10;
#X obj 28 319 hsl 162 19 1 1.61803 0 0 empty empty empty -2 -10 0 12 #fcfcfc #000000 #000000 0 1;
#X floatatom -39 329 5 0 0 0 - - - 0;
#X floatatom -26 426 5 0 0 0 - - - 0;
#X obj -25 402 +;
#X obj -27 450 +;
#X floatatom -26 473 5 0 0 0 - - - 0;
#X obj -25 498 +;
#X floatatom -25 525 5 0 0 0 - - - 0;
#X msg -42 364 1;
#X obj -11 226 loadbang;
#X obj -34 253 trigger bang bang;
#X obj -24 560 +;
#X floatatom -24 584 5 0 0 0 - - - 0;
#X obj -24 610 +;
#X floatatom -24 634 5 0 0 0 - - - 0;
#X obj -23 664 +;
#X floatatom -23 688 5 0 0 0 - - - 0;
#X obj -22 714 +;
#X floatatom -22 738 5 0 0 0 - - - 0;
#X obj -21 766 +;
#X floatatom -21 790 5 0 0 0 - - - 0;
#X obj -20 819 +;
#X floatatom -20 843 5 0 0 0 - - - 0;
#X msg 1045 560 list 1 0 0.11111 0 0.04 0 0.02041 0 0.01234;
#X text 1047 540 triangle wave;
#X text 1049 602 sawtooth wave;
#X msg 1016 624 list 1 0.5 0.33333 0.25 0.2 0.16667 0.14286 0.125 0.11111 0.1;
#X text 1052 677 square wave;
#X msg 1026 706 list 1 0 0.33333 0 0.2 0 0.14286 0 0.11111;
#X text 1056 753 sine wave;
#X msg 1030 781 list 1 1 1 1 1 1 1 1 1 1;
#X floatatom 202 367 5 0 0 0 - - - 0;
#X obj 231 332 loadbang;
#X text 62 39 partial abstraction tutorial: from left to right \, inlets are frequency multiple \, frequency \, amplitude \, and frequency modification (+ or - some amount) (NOTE: still pending on this one);
#X text 199 203 NOTE: I can't get both the frequency ratios and the frequency itself to change on-demand. right now you can change the frequency by messing with the number box below \, but if you change the slider \, the frequency will not change to reflect the new ratio until you change the number box again.;
#X connect 0 0 1 0;
#X connect 1 0 2 1;
#X connect 1 0 6 1;
#X connect 1 0 4 1;
#X connect 1 0 10 1;
#X connect 1 0 8 1;
#X connect 1 0 5 1;
#X connect 1 0 3 1;
#X connect 1 0 11 1;
#X connect 1 0 9 1;
#X connect 1 0 7 1;
#X connect 2 0 16 0;
#X connect 3 0 16 0;
#X connect 4 0 16 0;
#X connect 5 0 16 0;
#X connect 6 0 16 0;
#X connect 7 0 16 0;
#X connect 8 0 16 0;
#X connect 9 0 16 0;
#X connect 10 0 16 0;
#X connect 11 0 16 0;
#X connect 17 0 20 0;
#X connect 18 0 19 0;
#X connect 19 0 21 0;
#X connect 20 0 18 0;
#X connect 20 1 18 1;
#X connect 21 0 2 2;
#X connect 22 0 25 0;
#X connect 23 0 24 0;
#X connect 24 0 26 0;
#X connect 25 0 23 0;
#X connect 25 1 23 1;
#X connect 26 0 6 2;
#X connect 27 0 30 0;
#X connect 28 0 29 0;
#X connect 29 0 31 0;
#X connect 30 0 28 0;
#X connect 30 1 28 1;
#X connect 31 0 4 2;
#X connect 32 0 35 0;
#X connect 33 0 34 0;
#X connect 34 0 36 0;
#X connect 35 0 33 0;
#X connect 35 1 33 1;
#X connect 36 0 10 2;
#X connect 37 0 40 0;
#X connect 38 0 39 0;
#X connect 39 0 41 0;
#X connect 40 0 38 0;
#X connect 40 1 38 1;
#X connect 41 0 8 2;
#X connect 42 0 45 0;
#X connect 43 0 44 0;
#X connect 44 0 46 0;
#X connect 45 0 43 0;
#X connect 45 1 43 1;
#X connect 46 0 5 2;
#X connect 47 0 50 0;
#X connect 48 0 49 0;
#X connect 49 0 51 0;
#X connect 50 0 48 0;
#X connect 50 1 48 1;
#X connect 51 0 3 2;
#X connect 52 0 55 0;
#X connect 53 0 54 0;
#X connect 54 0 56 0;
#X connect 55 0 53 0;
#X connect 55 1 53 1;
#X connect 56 0 11 2;
#X connect 57 0 60 0;
#X connect 58 0 59 0;
#X connect 59 0 61 0;
#X connect 60 0 58 0;
#X connect 60 1 58 1;
#X connect 61 0 9 2;
#X connect 62 0 65 0;
#X connect 63 0 64 0;
#X connect 64 0 66 0;
#X connect 65 0 63 0;
#X connect 65 1 63 1;
#X connect 66 0 7 2;
#X connect 67 0 68 0;
#X connect 68 0 17 0;
#X connect 68 0 22 0;
#X connect 68 0 27 0;
#X connect 68 0 32 0;
#X connect 68 0 37 0;
#X connect 68 0 42 0;
#X connect 68 0 47 0;
#X connect 68 0 52 0;
#X connect 68 0 57 0;
#X connect 68 0 62 0;
#X connect 69 0 67 0;
#X connect 71 0 70 0;
#X connect 74 0 75 0;
#X connect 74 0 77 0;
#X connect 74 0 78 0;
#X connect 74 0 80 0;
#X connect 74 0 85 0;
#X connect 74 0 87 0;
#X connect 74 0 89 0;
#X connect 74 0 91 0;
#X connect 74 0 93 0;
#X connect 74 0 95 0;
#X connect 76 0 78 1;
#X connect 76 0 6 0;
#X connect 77 0 76 0;
#X connect 78 0 79 0;
#X connect 79 0 80 1;
#X connect 79 0 4 0;
#X connect 80 0 81 0;
#X connect 81 0 85 1;
#X connect 81 0 10 0;
#X connect 82 0 77 1;
#X connect 82 0 2 0;
#X connect 83 0 84 0;
#X connect 84 0 74 0;
#X connect 84 1 82 0;
#X connect 85 0 86 0;
#X connect 86 0 87 1;
#X connect 86 0 8 0;
#X connect 87 0 88 0;
#X connect 88 0 89 1;
#X connect 88 0 5 0;
#X connect 89 0 90 0;
#X connect 90 0 91 1;
#X connect 90 0 3 0;
#X connect 91 0 92 0;
#X connect 92 0 93 1;
#X connect 92 0 11 0;
#X connect 93 0 94 0;
#X connect 94 0 95 1;
#X connect 94 0 9 0;
#X connect 95 0 96 0;
#X connect 96 0 7 0;
#X connect 105 0 2 3;
#X connect 105 0 6 3;
#X connect 105 0 4 3;
#X connect 105 0 10 3;
#X connect 105 0 8 3;
#X connect 105 0 5 3;
#X connect 105 0 3 3;
#X connect 105 0 11 3;
#X connect 105 0 9 3;
#X connect 105 0 7 3;
#X connect 106 0 105 0;
