#N canvas 1512 -402 1512 842 12;
#X obj 161 129 osc~ 440;
#X obj 259 239 tgl 19 0 empty empty empty 0 -10 0 12 #fcfcfc #000000 #000000 0 1;
#X floatatom 253 296 5 0 0 0 - - - 0;
#X obj 161 202 *~ 0;
#X obj 216 158 tgl 19 0 empty empty empty 0 -10 0 12 #fcfcfc #000000 #000000 0 1;
#X obj 86 133 osc~ 442;
#X obj 430 195 tgl 19 0 empty empty empty 0 -10 0 12 #fcfcfc #000000 #000000 0 1;
#X obj 472 195 tgl 19 0 empty empty empty 0 -10 0 12 #fcfcfc #000000 #000000 0 1;
#X obj 517 195 tgl 19 0 empty empty empty 0 -10 0 12 #fcfcfc #000000 #000000 0 1;
#X obj 430 239 tgl 19 0 empty empty empty 0 -10 0 12 #fcfcfc #000000 #000000 0 1;
#X obj 472 239 tgl 19 0 empty empty empty 0 -10 0 12 #fcfcfc #000000 #000000 0 1;
#X obj 519 238 tgl 19 0 empty empty empty 0 -10 0 12 #fcfcfc #000000 #000000 0 1;
#X obj 430 282 tgl 19 0 empty empty empty 0 -10 0 12 #fcfcfc #000000 #000000 0 1;
#X obj 472 283 tgl 19 0 empty empty empty 0 -10 0 12 #fcfcfc #000000 #000000 0 1;
#X obj 519 282 tgl 19 0 empty empty empty 0 -10 0 12 #fcfcfc #000000 #000000 0 1;
#X text 427 154 0.1;
#X text 470 154 0.3;
#X text 514 154 0.5;
#X obj 154 264 dac~;
#X obj 78 202 dac~;
#X obj 1419 677 * 0.2;
#X obj 491 559 output~;
#X obj 561 385 *~ 0.5;
#X obj 462 396 *~ 0.3;
#X obj 381 387 *~ 0.1;
#X obj 404 436 *~ 0;
#X obj 466 438 *~ 0;
#X obj 535 439 *~ 0;
#X obj 364 339 osc~;
#X obj 458 338 osc~;
#X obj 547 349 osc~;
#X floatatom 153 386 5 0 0 0 - - - 0;
#X obj 138 443 * 1;
#X obj 198 445 * 2;
#X floatatom 138 489 5 0 0 0 - - - 0;
#X floatatom 204 490 5 0 0 0 - - - 0;
#X floatatom 345 271 5 0 0 0 - - - 0;
#X msg 332 229 440;
#X obj 683 349 *~ 0;
#X obj 770 305 osc~;
#X obj 682 300 osc~;
#X floatatom 680 260 5 0 0 0 - - - 0;
#X obj 685 216 * 1;
#X obj 751 216 * 2;
#X floatatom 981 119 5 0 0 0 - - - 0;
#X floatatom 752 256 5 0 0 0 - - - 0;
#X obj 767 346 *~ 0;
#X obj 1425 654 * 0.2;
#X obj 812 214 * 3;
#X floatatom 817 258 5 0 0 0 - - - 0;
#X obj 979 75 bng 19 250 50 0 empty empty empty 0 -10 0 12 #fcfcfc #000000 #000000;
#X text 1006 73 start button to load freqs;
#X obj 827 298 osc~;
#X obj 829 347 *~ 0;
#X obj 764 562 output~;
#X obj 1433 632 * 0.2;
#X obj 1490 299 vradio 19 1 0 6 empty empty empty 0 -10 0 12 #fcfcfc #000000 #000000 0;
#X obj 1511 299 vradio 19 1 0 6 empty empty empty 0 -10 0 12 #fcfcfc #000000 #000000 0;
#X obj 1532 299 vradio 19 1 0 6 empty empty empty 0 -10 0 12 #fcfcfc #000000 #000000 0;
#X floatatom 878 257 5 0 0 0 - - - 0;
#X obj 888 297 osc~;
#X obj 890 346 *~ 0;
#X floatatom 947 259 5 0 0 0 - - - 0;
#X obj 957 299 osc~;
#X obj 959 348 *~ 0;
#X obj 873 213 * 4;
#X obj 942 215 * 5;
#X obj 1448 610 * 0.2;
#X obj 1554 299 vradio 19 1 0 6 empty empty empty 0 -10 0 12 #fcfcfc #000000 #000000 0;
#X obj 1464 589 * 0.2;
#X obj 1577 299 vradio 19 1 0 6 empty empty empty 0 -10 0 12 #fcfcfc #000000 #000000 0;
#X text 904 35 actual working stuff is here!;
#X obj 1442 197 trigger 0;
#X obj 1441 165 bng 19 250 50 0 empty empty empty 0 -10 0 12 #fcfcfc #000000 #000000;
#X text 1438 142 OFF;
#X floatatom 1013 259 5 0 0 0 - - - 0;
#X obj 1023 299 osc~;
#X obj 1025 348 *~ 0;
#X floatatom 1084 258 5 0 0 0 - - - 0;
#X obj 1094 298 osc~;
#X obj 1096 347 *~ 0;
#X floatatom 1157 257 5 0 0 0 - - - 0;
#X obj 1167 297 osc~;
#X obj 1169 346 *~ 0;
#X floatatom 1229 255 5 0 0 0 - - - 0;
#X obj 1239 295 osc~;
#X obj 1241 344 *~ 0;
#X floatatom 1293 256 5 0 0 0 - - - 0;
#X obj 1303 296 osc~;
#X obj 1305 345 *~ 0;
#X obj 1672 299 vradio 19 1 0 6 empty empty empty 0 -10 0 12 #fcfcfc #000000 #000000 0;
#X obj 1600 299 vradio 19 1 0 6 empty empty empty 0 -10 0 12 #fcfcfc #000000 #000000 0;
#X obj 1624 299 vradio 19 1 0 6 empty empty empty 0 -10 0 12 #fcfcfc #000000 #000000 0;
#X obj 1648 299 vradio 19 1 0 6 empty empty empty 0 -10 0 12 #fcfcfc #000000 #000000 0;
#X obj 1696 300 vradio 19 1 0 6 empty empty empty 0 -10 0 12 #fcfcfc #000000 #000000 0;
#X obj 1498 543 * 0.2;
#X obj 1514 519 * 0.2;
#X obj 1484 566 * 0.2;
#X obj 1528 497 * 0.2;
#X obj 1546 474 * 0.2;
#X obj 1008 215 * 6;
#X obj 1079 214 * 7;
#X obj 1152 213 * 8;
#X obj 1224 211 * 9;
#X obj 1288 212 * 10;
#X connect 0 0 3 0;
#X connect 1 0 2 0;
#X connect 3 0 18 0;
#X connect 3 0 18 1;
#X connect 4 0 3 1;
#X connect 12 0 25 1;
#X connect 13 0 26 1;
#X connect 14 0 27 1;
#X connect 20 0 38 1;
#X connect 22 0 27 0;
#X connect 23 0 26 0;
#X connect 24 0 25 0;
#X connect 25 0 21 0;
#X connect 26 0 21 0;
#X connect 27 0 21 0;
#X connect 28 0 24 0;
#X connect 29 0 23 0;
#X connect 30 0 22 0;
#X connect 31 0 32 0;
#X connect 31 0 33 0;
#X connect 32 0 34 0;
#X connect 33 0 35 0;
#X connect 36 0 28 0;
#X connect 36 0 29 0;
#X connect 36 0 30 0;
#X connect 37 0 36 0;
#X connect 38 0 54 0;
#X connect 39 0 46 0;
#X connect 40 0 38 0;
#X connect 41 0 40 0;
#X connect 42 0 41 0;
#X connect 43 0 45 0;
#X connect 44 0 42 0;
#X connect 44 0 43 0;
#X connect 44 0 48 0;
#X connect 44 0 65 0;
#X connect 44 0 66 0;
#X connect 44 0 100 0;
#X connect 44 0 101 0;
#X connect 44 0 102 0;
#X connect 44 0 103 0;
#X connect 44 0 104 0;
#X connect 45 0 39 0;
#X connect 46 0 54 0;
#X connect 47 0 46 1;
#X connect 48 0 49 0;
#X connect 49 0 52 0;
#X connect 50 0 44 0;
#X connect 52 0 53 0;
#X connect 53 0 54 0;
#X connect 55 0 53 1;
#X connect 56 0 20 0;
#X connect 57 0 47 0;
#X connect 58 0 55 0;
#X connect 59 0 60 0;
#X connect 60 0 61 0;
#X connect 61 0 54 0;
#X connect 62 0 63 0;
#X connect 63 0 64 0;
#X connect 64 0 54 0;
#X connect 65 0 59 0;
#X connect 66 0 62 0;
#X connect 67 0 61 1;
#X connect 68 0 67 0;
#X connect 69 0 64 1;
#X connect 70 0 69 0;
#X connect 72 0 56 0;
#X connect 72 0 57 0;
#X connect 72 0 58 0;
#X connect 72 0 68 0;
#X connect 72 0 70 0;
#X connect 72 0 91 0;
#X connect 72 0 92 0;
#X connect 72 0 93 0;
#X connect 72 0 90 0;
#X connect 72 0 94 0;
#X connect 73 0 72 0;
#X connect 75 0 76 0;
#X connect 76 0 77 0;
#X connect 77 0 54 0;
#X connect 78 0 79 0;
#X connect 79 0 80 0;
#X connect 80 0 54 0;
#X connect 81 0 82 0;
#X connect 82 0 83 0;
#X connect 83 0 54 0;
#X connect 84 0 85 0;
#X connect 85 0 86 0;
#X connect 86 0 54 0;
#X connect 87 0 88 0;
#X connect 88 0 89 0;
#X connect 89 0 54 0;
#X connect 90 0 98 0;
#X connect 91 0 97 0;
#X connect 92 0 95 0;
#X connect 93 0 96 0;
#X connect 94 0 99 0;
#X connect 95 0 80 1;
#X connect 96 0 83 1;
#X connect 97 0 77 1;
#X connect 98 0 86 1;
#X connect 99 0 89 1;
#X connect 100 0 75 0;
#X connect 101 0 78 0;
#X connect 102 0 81 0;
#X connect 103 0 84 0;
#X connect 104 0 87 0;
