#N canvas 0 38 1512 847 12;
#X obj 161 129 osc~ 440;
#X obj 161 202 *~ 0;
#X obj 216 158 tgl 19 0 empty empty empty 0 -10 0 12 #fcfcfc #000000 #000000 0 1;
#X obj 86 133 osc~ 442;
#X obj 308 200 tgl 19 0 empty empty empty 0 -10 0 12 #fcfcfc #000000 #000000 0 1;
#X obj 350 200 tgl 19 0 empty empty empty 0 -10 0 12 #fcfcfc #000000 #000000 0 1;
#X obj 395 200 tgl 19 0 empty empty empty 0 -10 0 12 #fcfcfc #000000 #000000 0 1;
#X obj 308 244 tgl 19 0 empty empty empty 0 -10 0 12 #fcfcfc #000000 #000000 0 1;
#X obj 350 244 tgl 19 0 empty empty empty 0 -10 0 12 #fcfcfc #000000 #000000 0 1;
#X obj 397 243 tgl 19 0 empty empty empty 0 -10 0 12 #fcfcfc #000000 #000000 0 1;
#X obj 308 287 tgl 19 0 empty empty empty 0 -10 0 12 #fcfcfc #000000 #000000 0 1;
#X obj 350 288 tgl 19 0 empty empty empty 0 -10 0 12 #fcfcfc #000000 #000000 0 1;
#X obj 397 287 tgl 19 0 empty empty empty 0 -10 0 12 #fcfcfc #000000 #000000 0 1;
#X text 305 159 0.1;
#X text 348 159 0.3;
#X text 392 159 0.5;
#X obj 154 264 dac~;
#X obj 78 202 dac~;
#X obj 369 564 output~;
#X obj 439 390 *~ 0.5;
#X obj 340 401 *~ 0.3;
#X obj 259 392 *~ 0.1;
#X obj 282 441 *~ 0;
#X obj 344 443 *~ 0;
#X obj 413 444 *~ 0;
#X obj 242 344 osc~;
#X obj 336 343 osc~;
#X obj 425 354 osc~;
#X floatatom 153 386 5 0 0 0 - - - 0;
#X obj 138 443 * 1;
#X obj 198 445 * 2;
#X floatatom 138 489 5 0 0 0 - - - 0;
#X floatatom 204 490 5 0 0 0 - - - 0;
#X floatatom 223 276 5 0 0 0 - - - 0;
#X msg 210 234 440;
#X obj 682 352 *~ 0;
#X obj 770 305 osc~;
#X obj 681 303 osc~;
#X floatatom 682 263 5 0 0 0 - - - 0;
#X obj 767 346 *~ 0;
#X obj 812 214 * 3;
#X floatatom 817 258 5 0 0 0 - - - 0;
#X obj 827 298 osc~;
#X obj 829 347 *~ 0;
#X obj 764 562 output~;
#X obj 1438 107 vradio 19 1 0 10 empty empty empty 0 -10 0 12 #fcfcfc #000000 #000000 0;
#X obj 1479 107 vradio 19 1 0 10 empty empty empty 0 -10 0 12 #fcfcfc #000000 #000000 0;
#X obj 1521 107 vradio 19 1 0 10 empty empty empty 0 -10 0 12 #fcfcfc #000000 #000000 0;
#X floatatom 878 257 5 0 0 0 - - - 0;
#X obj 888 297 osc~;
#X obj 890 346 *~ 0;
#X floatatom 947 259 5 0 0 0 - - - 0;
#X obj 957 299 osc~;
#X obj 959 348 *~ 0;
#X obj 873 213 * 4;
#X obj 942 215 * 5;
#X obj 1562 107 vradio 19 1 0 10 empty empty empty 0 -10 0 12 #fcfcfc #000000 #000000 0;
#X obj 1604 107 vradio 19 1 0 10 empty empty empty 0 -10 0 12 #fcfcfc #000000 #000000 0;
#X text 904 35 actual working stuff is here!;
#X obj 1544 40 trigger 0;
#X obj 1543 8 bng 19 250 50 0 empty empty empty 0 -10 0 12 #fcfcfc #000000 #000000;
#X text 1540 -15 OFF;
#X floatatom 1013 259 5 0 0 0 - - - 0;
#X obj 1023 299 osc~;
#X obj 1025 348 *~ 0;
#X floatatom 1084 258 5 0 0 0 - - - 0;
#X obj 1094 298 osc~;
#X obj 1096 347 *~ 0;
#X floatatom 1157 257 5 0 0 0 - - - 0;
#X obj 1167 297 osc~;
#X obj 1169 346 *~ 0;
#X floatatom 1229 255 5 0 0 0 - - - 0;
#X obj 1239 295 osc~;
#X obj 1241 344 *~ 0;
#X floatatom 1293 256 5 0 0 0 - - - 0;
#X obj 1303 296 osc~;
#X obj 1305 345 *~ 0;
#X obj 1772 107 vradio 19 1 0 10 empty empty empty 0 -10 0 12 #fcfcfc #000000 #000000 0;
#X obj 1646 107 vradio 19 1 0 10 empty empty empty 0 -10 0 12 #fcfcfc #000000 #000000 0;
#X obj 1688 107 vradio 19 1 0 10 empty empty empty 0 -10 0 12 #fcfcfc #000000 #000000 0;
#X obj 1730 107 vradio 19 1 0 10 empty empty empty 0 -10 0 12 #fcfcfc #000000 #000000 0;
#X obj 1814 107 vradio 19 1 0 10 empty empty empty 0 -10 0 12 #fcfcfc #000000 #000000 0;
#X obj 1008 215 * 6;
#X obj 1079 214 * 7;
#X obj 1152 213 * 8;
#X obj 1224 211 * 9;
#X obj 1288 212 * 10;
#X floatatom 161 544 5 0 0 0 - - - 0;
#X obj 161 567 * 2;
#X obj 120 643 expr $f1 * $f2;
#X floatatom 107 607 5 0 0 0 - - - 0;
#X floatatom 122 684 5 0 0 0 - - - 0;
#X floatatom 752 260 5 0 0 0 - - - 0;
#X obj 475 56 hsl 162 19 1 1.61803 0 0 empty empty empty -2 -10 0 12 #fcfcfc #000000 #000000 0 1;
#X text 631 21 1.61803;
#X text 458 23 1;
#X floatatom 396 96 10 0 0 0 - - - 0;
#X obj 519 289 * \$1;
#X floatatom 574 220 5 0 0 0 - - - 0;
#X floatatom 527 335 5 0 0 0 - - - 0;
#X obj 688 222 * 1;
#X obj 1438 302 * 0.1;
#X obj 1479 302 * 0.1;
#X obj 1521 302 * 0.1;
#X obj 1562 302 * 0.1;
#X obj 1604 302 * 0.1;
#X obj 1646 302 * 0.1;
#X obj 1688 302 * 0.1;
#X obj 1730 302 * 0.1;
#X obj 1772 302 * 0.1;
#X obj 1814 302 * 0.1;
#X msg 966 97 440;
#X obj 966 69 loadbang;
#X msg 1047 660 1;
#X floatatom 944 768 5 0 0 0 - - - 0;
#X floatatom 1045 794 5 0 0 0 - - - 0;
#X obj 957 570 hsl 162 19 1 1.61803 0 0 empty empty empty -2 -10 0 12 #fcfcfc #000000 #000000 0 1;
#X obj 1040 700 *;
#X obj 1105 721 + 1;
#X obj 1040 763 *;
#X floatatom 1219 931 5 0 0 0 - - - 0;
#X msg 1208 826 1;
#X obj 1208 850 + 1;
#X obj 1208 874 + 1;
#X obj 1133 763 + 1;
#X obj 1049 833 *;
#X floatatom 1050 867 5 0 0 0 - - - 0;
#X obj 954 539 loadbang;
#X obj 1057 618 loadbang;
#X obj 892 824 *;
#X floatatom 891 863 5 0 0 0 - - - 0;
#X msg 862 784 440;
#X obj 748 216 * 2;
#X floatatom 817 118 5 0 0 0 - - - 0;
#X obj 1365 450 hsl 162 19 1 1.61803 0 0 empty empty empty -2 -10 0 12 #fcfcfc #000000 #000000 0 1;
#X floatatom 1298 460 5 0 0 0 - - - 0;
#X floatatom 1311 557 5 0 0 0 - - - 0;
#X obj 1312 533 +;
#X obj 1310 581 +;
#X floatatom 1311 604 5 0 0 0 - - - 0;
#X obj 1312 629 +;
#X floatatom 1312 656 5 0 0 0 - - - 0;
#X floatatom 1485 508 5 0 0 0 - - - 0;
#X msg 1546 511 440;
#X obj 1526 548 *;
#X floatatom 1526 572 5 0 0 0 - - - 0;
#X msg 1409 514 440;
#X obj 1390 543 *;
#X floatatom 1390 567 5 0 0 0 - - - 0;
#X msg 1295 495 1;
#X obj 1436 667 *;
#X floatatom 1436 691 5 0 0 0 - - - 0;
#X obj 1403 727 *;
#X floatatom 1403 751 5 0 0 0 - - - 0;
#X obj 1392 611 *;
#X floatatom 1392 635 5 0 0 0 - - - 0;
#X obj 430 752 vcf~, f 7;
#X obj 1337 408 trigger bang bang bang;
#X obj 1337 378 loadbang;
#X connect 0 0 1 0;
#X connect 1 0 16 0;
#X connect 1 0 16 1;
#X connect 2 0 1 1;
#X connect 10 0 22 1;
#X connect 11 0 23 1;
#X connect 12 0 24 1;
#X connect 19 0 24 0;
#X connect 20 0 23 0;
#X connect 21 0 22 0;
#X connect 22 0 18 0;
#X connect 23 0 18 0;
#X connect 24 0 18 0;
#X connect 25 0 21 0;
#X connect 26 0 20 0;
#X connect 27 0 19 0;
#X connect 28 0 29 0;
#X connect 28 0 30 0;
#X connect 29 0 31 0;
#X connect 30 0 32 0;
#X connect 33 0 25 0;
#X connect 33 0 26 0;
#X connect 33 0 27 0;
#X connect 34 0 33 0;
#X connect 35 0 44 0;
#X connect 36 0 39 0;
#X connect 37 0 35 0;
#X connect 38 0 37 0;
#X connect 39 0 44 0;
#X connect 40 0 41 0;
#X connect 41 0 42 0;
#X connect 42 0 43 0;
#X connect 43 0 44 0;
#X connect 45 0 101 0;
#X connect 46 0 102 0;
#X connect 47 0 103 0;
#X connect 48 0 49 0;
#X connect 49 0 50 0;
#X connect 50 0 44 0;
#X connect 51 0 52 0;
#X connect 52 0 53 0;
#X connect 53 0 44 0;
#X connect 54 0 48 0;
#X connect 55 0 51 0;
#X connect 56 0 104 0;
#X connect 57 0 105 0;
#X connect 59 0 45 0;
#X connect 59 0 46 0;
#X connect 59 0 47 0;
#X connect 59 0 56 0;
#X connect 59 0 57 0;
#X connect 59 0 78 0;
#X connect 59 0 79 0;
#X connect 59 0 80 0;
#X connect 59 0 77 0;
#X connect 59 0 81 0;
#X connect 60 0 59 0;
#X connect 62 0 63 0;
#X connect 63 0 64 0;
#X connect 64 0 44 0;
#X connect 65 0 66 0;
#X connect 66 0 67 0;
#X connect 67 0 44 0;
#X connect 68 0 69 0;
#X connect 69 0 70 0;
#X connect 70 0 44 0;
#X connect 71 0 72 0;
#X connect 72 0 73 0;
#X connect 73 0 44 0;
#X connect 74 0 75 0;
#X connect 75 0 76 0;
#X connect 76 0 44 0;
#X connect 77 0 109 0;
#X connect 78 0 106 0;
#X connect 79 0 107 0;
#X connect 80 0 108 0;
#X connect 81 0 110 0;
#X connect 82 0 62 0;
#X connect 83 0 65 0;
#X connect 84 0 68 0;
#X connect 85 0 71 0;
#X connect 86 0 74 0;
#X connect 87 0 88 0;
#X connect 88 0 89 1;
#X connect 89 0 91 0;
#X connect 90 0 89 0;
#X connect 92 0 36 0;
#X connect 93 0 96 0;
#X connect 97 0 99 0;
#X connect 98 0 97 1;
#X connect 100 0 38 0;
#X connect 101 0 35 1;
#X connect 102 0 39 1;
#X connect 103 0 43 1;
#X connect 104 0 50 1;
#X connect 105 0 53 1;
#X connect 106 0 64 1;
#X connect 107 0 67 1;
#X connect 108 0 70 1;
#X connect 109 0 73 1;
#X connect 110 0 76 1;
#X connect 111 0 40 0;
#X connect 111 0 54 0;
#X connect 111 0 55 0;
#X connect 111 0 82 0;
#X connect 111 0 83 0;
#X connect 111 0 84 0;
#X connect 111 0 85 0;
#X connect 111 0 86 0;
#X connect 111 0 132 0;
#X connect 111 0 133 0;
#X connect 111 0 100 0;
#X connect 112 0 111 0;
#X connect 113 0 117 1;
#X connect 113 0 118 0;
#X connect 114 0 129 0;
#X connect 116 0 125 0;
#X connect 116 0 119 0;
#X connect 116 0 117 0;
#X connect 117 0 114 0;
#X connect 118 0 119 1;
#X connect 118 0 124 0;
#X connect 119 0 115 0;
#X connect 121 0 122 0;
#X connect 122 0 123 0;
#X connect 123 0 120 0;
#X connect 124 0 125 1;
#X connect 125 0 126 0;
#X connect 127 0 116 0;
#X connect 128 0 113 0;
#X connect 129 0 130 0;
#X connect 131 0 129 1;
#X connect 132 0 92 0;
#X connect 133 0 132 0;
#X connect 133 0 40 0;
#X connect 133 0 54 0;
#X connect 133 0 55 0;
#X connect 133 0 82 0;
#X connect 133 0 83 0;
#X connect 133 0 84 0;
#X connect 133 0 85 0;
#X connect 133 0 86 0;
#X connect 133 0 100 0;
#X connect 134 0 135 0;
#X connect 134 0 137 0;
#X connect 134 0 138 0;
#X connect 134 0 140 0;
#X connect 136 0 138 1;
#X connect 136 0 154 0;
#X connect 137 0 136 0;
#X connect 138 0 139 0;
#X connect 139 0 140 1;
#X connect 139 0 150 0;
#X connect 140 0 141 0;
#X connect 141 0 152 0;
#X connect 142 0 144 0;
#X connect 143 0 144 1;
#X connect 144 0 145 0;
#X connect 146 0 147 1;
#X connect 146 0 150 1;
#X connect 146 0 152 1;
#X connect 146 0 154 1;
#X connect 147 0 148 0;
#X connect 149 0 137 1;
#X connect 149 0 147 0;
#X connect 150 0 151 0;
#X connect 152 0 153 0;
#X connect 154 0 155 0;
#X connect 157 0 149 0;
#X connect 157 1 134 0;
#X connect 157 2 146 0;
#X connect 158 0 157 0;
