#N canvas 522 114 565 542 12;
#X obj 259 9 vradio 19 1 0 11 empty empty empty 0 -10 0 12 #fcfcfc #000000 #000000 0;
#X obj 259 223 swap 10;
#X obj 259 247 -;
#X floatatom 259 271 5 0 0 0 - - - 0;
#X obj 200 333 vcf~;
#X obj 174 33 vsl 19 162 200 2000 0 0 empty empty empty 0 -9 0 12 #fcfcfc #000000 #000000 0 1;
#X floatatom 174 203 5 0 0 0 - - - 0;
#X obj 174 226 sig~ 200;
#X obj 102 271 osc~ 440;
#X obj 347 7 vradio 19 1 0 11 empty empty empty 0 -10 0 12 #fcfcfc #000000 #000000 0;
#X obj 347 221 swap 10;
#X obj 347 245 -;
#X floatatom 347 269 5 0 0 0 - - - 0;
#X obj 428 252 osc~ 880;
#X obj 349 336 vcf~;
#X obj 271 416 dac~;
#X obj 317 299 +~ 440;
#X obj 269 375 +~;
#X connect 0 0 1 0;
#X connect 1 0 2 0;
#X connect 1 1 2 1;
#X connect 2 0 3 0;
#X connect 3 0 4 2;
#X connect 4 0 17 0;
#X connect 5 0 6 0;
#X connect 6 0 7 0;
#X connect 7 0 4 1;
#X connect 7 0 16 0;
#X connect 8 0 4 0;
#X connect 9 0 10 0;
#X connect 10 0 11 0;
#X connect 10 1 11 1;
#X connect 11 0 12 0;
#X connect 12 0 14 2;
#X connect 13 0 14 0;
#X connect 14 0 17 1;
#X connect 16 0 14 1;
